<svg width="1920" height="1080" viewBox="0 0 1920 1080" fill="none" xmlns="http://www.w3.org/2000/svg">
  <rect width="1920" height="1080" fill="#023055"/>
  <path d="M0 680C160 720 320 800 480 760C640 720 800 640 960 600C1120 560 1280 560 1440 600C1600 640 1760 720 1920 780V1080H0V680Z" fill="#039BFF" fill-opacity="0.2"/>
  <path d="M0 780C160 820 320 900 480 860C640 820 800 740 960 700C1120 660 1280 660 1440 700C1600 740 1760 820 1920 880V1080H0V780Z" fill="#039BFF" fill-opacity="0.4"/>
  <path d="M0 880C160 920 320 1000 480 960C640 920 800 840 960 800C1120 760 1280 760 1440 800C1600 840 1760 920 1920 980V1080H0V880Z" fill="#039BFF" fill-opacity="0.6"/>
</svg> 