<svg width="1200" height="120" viewBox="0 0 1200 120" xmlns="http://www.w3.org/2000/svg" preserveAspectRatio="none">
  <defs>
    <linearGradient id="oceanGradient" x1="0%" y1="0%" x2="0%" y2="100%">
      <stop offset="0%" style="stop-color:#48B3ED;stop-opacity:0.9" />
      <stop offset="100%" style="stop-color:#0D4B77;stop-opacity:0.8" />
    </linearGradient>
  </defs>
  <path 
    d="M0,40 
       C150,80 200,0 300,20 
       C400,40 500,80 600,60
       C700,40 800,10 900,30
       C1000,50 1100,80 1200,60
       L1200,120 L0,120 Z" 
    fill="url(#oceanGradient)" />

  <!-- Subtle highlight on wave crests -->
  <path 
    d="M300,20 C320,15 340,15 360,20
       M600,60 C620,55 640,55 660,60
       M900,30 C920,25 940,25 960,30"
    stroke="rgba(255,255,255,0.5)" 
    stroke-width="2"
    fill="none" />

  <!-- More prominent sailboat on the waves -->
  <g transform="translate(750, 20) scale(0.06)" fill="rgba(255,255,255,0.25)">
    <path d="M400 150L250 400H400V150ZM400 150L550 400H400V150ZM180 450L180 500H620L620 450L180 450ZM400 500L250 700H550L400 500Z"/>
  </g>
  
  <!-- Small seagull in the distance -->
  <g transform="translate(250, 10) scale(0.03)" fill="rgba(255,255,255,0.15)">
    <path d="M675 360.5C630 341 570 360.5 550 390.5C535 413 535 430.5 520.5 427.5C511 425.5 508 418 500 413C492 408 475.5 408 467.5 413C463 416 455 427.5 446.5 418C440.5 411.5 438 400.5 438 390.5C438 345.5 400 286 345 272C291.5 258.5 233 272 200 300.5C167 329 127.5 390.5 125 418C122.5 445.5 125 481.5 127.5 496.5C130 511.5 138 526.5 138 526.5L177.5 496.5C177.5 496.5 180 482 185 466.5C190 451 202.5 436 210 428.5C217.5 421 230 413 243.5 408C257 403 277.5 400.5 297.5 400.5C317.5 400.5 345 408 360 415.5C375 423 400 445.5 420 453C440 460.5 462.5 462 485 457.5C507.5 453 532.5 441 550 427.5C567.5 414 587.5 390.5 600 378C612.5 365.5 647.5 343 675 360.5Z"/>
  </g>
</svg> 