<svg width="24" height="24" viewBox="0 0 24 24" fill="none" xmlns="http://www.w3.org/2000/svg">
  <!-- Buoy body with stripes -->
  <path d="M12 5V19" stroke="#039BFF" stroke-width="2" stroke-linecap="round"/>
  <path d="M16 9C16 11.2091 14.2091 13 12 13C9.79086 13 8 11.2091 8 9C8 6.79086 9.79086 5 12 5C14.2091 5 16 6.79086 16 9Z" stroke="#039BFF" stroke-width="2"/>
  <path d="M16 15C16 17.2091 14.2091 19 12 19C9.79086 19 8 17.2091 8 15C8 12.7909 9.79086 11 12 11C14.2091 11 16 12.7909 16 15Z" stroke="#039BFF" stroke-width="2"/>
  <path d="M12 3V5" stroke="#023055" stroke-width="2" stroke-linecap="round"/>
  <path d="M12 19V21" stroke="#023055" stroke-width="2" stroke-linecap="round"/>
  <!-- Water waves -->
  <path d="M5 9C3.33333 9 2 10 2 12" stroke="#023055" stroke-width="1.5" stroke-linecap="round"/>
  <path d="M19 9C20.6667 9 22 10 22 12" stroke="#023055" stroke-width="1.5" stroke-linecap="round"/>
</svg> 