<svg width="24" height="24" viewBox="0 0 24 24" fill="none" xmlns="http://www.w3.org/2000/svg">
  <!-- Ocean waves -->
  <path d="M0 16C4 15 8 14.5 12 14.5C16 14.5 20 15 24 16V24H0V16Z" fill="#D6F1FF"/>
  <path d="M0 18C4 17 8 16.5 12 16.5C16 16.5 20 17 24 18V24H0V18Z" fill="#6CC8FF" fill-opacity="0.4"/>
  <path d="M0 20C4 19 8 18.5 12 18.5C16 18.5 20 19 24 20V24H0V20Z" fill="#039BFF" fill-opacity="0.3"/>
  
  <!-- Sailboat -->
  <path d="M12 3L12 16" stroke="#023055" stroke-width="1.5" stroke-linecap="round"/> <!-- Mast -->
  <path d="M12 3L5 16" stroke="#023055" stroke-width="1.5" stroke-linecap="round"/> <!-- Left support -->
  <path d="M5 16L19 16" stroke="#023055" stroke-width="1.5" stroke-linecap="round"/> <!-- Base -->
  <path d="M12 3L19 10" fill="#023055"/> <!-- Right sail fill -->
  <path d="M12 3L19 10" stroke="#023055" stroke-width="1.5" stroke-linecap="round"/> <!-- Right sail outline -->
  <path d="M12 7L6 16" fill="#039BFF"/> <!-- Left sail fill -->
  <path d="M12 7L6 16" stroke="#023055" stroke-width="1.5" stroke-linecap="round"/> <!-- Left sail outline -->
</svg> 