<?xml version="1.0" standalone="no"?>
<!DOCTYPE svg PUBLIC "-//W3C//DTD SVG 20010904//EN"
 "http://www.w3.org/TR/2001/REC-SVG-20010904/DTD/svg10.dtd">
<svg version="1.0" xmlns="http://www.w3.org/2000/svg"
 width="1024.000000pt" height="1024.000000pt" viewBox="0 0 1024.000000 1024.000000"
 preserveAspectRatio="xMidYMid meet">

<g transform="translate(0.000000,1024.000000) scale(0.100000,-0.100000)"
fill="#000000" stroke="none">
<path d="M1650 8010 c-11 -11 -20 -27 -20 -35 0 -70 233 -347 489 -581 288
-265 586 -471 1057 -733 229 -127 270 -174 335 -385 144 -468 339 -886 641
-1377 59 -97 108 -183 108 -190 -2 -62 -228 -293 -388 -397 -196 -128 -406
-209 -772 -297 -131 -32 -206 -66 -221 -99 -10 -20 -8 -32 10 -69 48 -99 327
-324 465 -376 77 -28 147 -27 214 4 87 40 208 124 352 243 208 173 204 172
610 191 379 19 700 82 975 191 41 16 93 30 115 30 27 0 108 -27 242 -81 429
-171 692 -292 792 -363 67 -47 219 -207 501 -521 543 -608 978 -965 1175 -965
30 0 43 6 60 28 20 24 21 35 16 92 -40 392 -509 1693 -704 1950 -142 188 -280
257 -831 416 -329 95 -391 114 -391 122 1 8 200 156 326 240 104 70 119 74
339 97 181 19 242 36 251 71 15 59 -64 110 -229 149 -56 13 -140 29 -186 34
-59 8 -96 18 -125 36 -23 14 -66 41 -96 60 -97 61 -158 77 -316 82 -169 6
-250 -10 -409 -83 -180 -83 -230 -97 -315 -91 -108 7 -171 38 -270 133 -118
113 -232 290 -334 520 -64 146 -102 258 -151 451 -123 487 -308 647 -1057 919
-404 146 -1608 487 -2024 574 -172 36 -207 37 -234 10z"/>
</g>
</svg>
