<?xml version="1.0" encoding="UTF-8"?>
<svg version="1.1" xmlns="http://www.w3.org/2000/svg" width="1024" height="1024">
<path d="M0 0 C3.43065118 3.19130342 5.53457393 5.91766964 6.6875 10.5 C6.71240319 14.5642001 6.30295906 18.48613658 5.6875 22.5 C6.62207031 23.08265625 7.55664062 23.6653125 8.51953125 24.265625 C15.92250834 28.88483007 23.3136563 33.5219193 30.6875 38.1875 C38.13269463 42.89607002 45.59318264 47.5797928 53.0625 52.25 C54.08649902 52.89074463 55.11049805 53.53148926 56.16552734 54.19165039 C61.52558004 57.54113922 66.90476628 60.85319763 72.3125 64.125 C82.67908654 70.48317308 82.67908654 70.48317308 84.6875 74.5 C85.24283305 79.05191025 85.05698072 82.63252352 83.25 86.875 C78.17692612 92.07180739 72.36711662 92.66459302 65.3125 92.75 C62.06449358 92.69964331 59.78236823 92.53162274 56.6875 91.5 C56.6875 113.61 56.6875 135.72 56.6875 158.5 C64.6075 158.5 72.5275 158.5 80.6875 158.5 C90.3646941 162.6473689 90.3646941 162.6473689 92.6875 167.5 C93.41426159 171.21159589 93.47930129 174.85052939 93.5 178.625 C93.52223633 179.65238281 93.54447266 180.67976562 93.56738281 181.73828125 C93.60772548 183.75925694 93.63786937 185.78046757 93.65673828 187.80175781 C93.68193383 190.01176702 93.75422619 192.22119364 93.83984375 194.4296875 C94.07830758 201.92699016 93.22086483 206.33329396 88.4375 212.3125 C83.25178194 216.33407727 74.08439961 216.5 67.6875 216.5 C67.7986615 217.79857437 67.909823 219.09714874 68.02435303 220.43507385 C73.60180118 285.59914774 79.15039964 350.76561297 84.62360525 415.93853188 C84.8125253 418.18780118 85.00152061 420.43706414 85.19054031 422.68632507 C87.91333549 455.08772151 90.6175362 487.49045648 93.2466917 519.89959979 C93.51498454 523.20591871 93.78368849 526.51220424 94.05230713 529.8184967 C94.95163943 540.8944572 95.84868094 551.97058078 96.73450947 563.04763031 C97.08611806 567.43582389 97.44088825 571.82375792 97.79641533 576.21163559 C97.95917337 578.23025336 98.12043473 580.24899244 98.2801075 582.2678566 C98.49576615 584.99374575 98.71637786 587.71918932 98.93823242 590.44458008 C98.9999721 591.24167735 99.06171177 592.03877462 99.12532234 592.86002636 C99.39298545 596.80830969 99.39298545 596.80830969 100.6875 600.5 C101.6775 600.83 102.6675 601.16 103.6875 601.5 C103.6875 602.49 103.6875 603.48 103.6875 604.5 C104.81027344 604.39300781 105.93304687 604.28601563 107.08984375 604.17578125 C123.7358033 602.76507521 123.7358033 602.76507521 129.6875 606.5 C133.52551445 609.90945204 136.44767002 614.06204332 136.95492554 619.21847534 C136.96254913 620.25738922 136.97017273 621.2963031 136.97802734 622.36669922 C136.99078705 623.54827606 137.00354675 624.72985291 137.01669312 625.94723511 C137.02003159 627.85667404 137.02003159 627.85667404 137.0234375 629.8046875 C137.0300943 631.11656036 137.0367511 632.42843323 137.04360962 633.78005981 C137.05557195 636.55571788 137.05929156 639.33125158 137.05810547 642.10693359 C137.05790238 645.65341138 137.08519685 649.19908687 137.11964989 652.74537468 C137.14731565 656.14015716 137.14606936 659.53479382 137.1484375 662.9296875 C137.16999405 664.83305374 137.16999405 664.83305374 137.19198608 666.77487183 C137.13542142 677.69462928 137.13542142 677.69462928 132.6875 682.5 C125.64660562 689.23476854 119.49420492 689.79669561 110.18716431 689.76742554 C109.13004222 689.77195665 108.07292014 689.77648776 106.98376405 689.78115618 C103.44176831 689.79381577 99.89992602 689.79217879 96.35791016 689.79052734 C93.81831159 689.79651156 91.27871484 689.80331686 88.73912048 689.81088257 C82.55694505 689.82672337 76.37482581 689.83299136 70.19263197 689.83410732 C65.16661746 689.83505847 60.1406155 689.83917211 55.11460495 689.84550858 C40.85815291 689.86311584 26.60173096 689.87234814 12.34526797 689.87084763 C11.19306149 689.87072776 11.19306149 689.87072776 10.01757812 689.87060547 C9.24850039 689.87052371 8.47942266 689.87044195 7.68703954 689.87035771 C-4.77792268 689.86954474 -17.24276408 689.88868641 -29.70769136 689.9168822 C-42.51322908 689.94561945 -55.31870788 689.95942207 -68.12427866 689.95769465 C-75.31100673 689.95703108 -82.49760811 689.9625088 -89.6843071 689.98405075 C-96.44277418 690.00417968 -103.20092937 690.00358034 -109.95942497 689.98901749 C-112.43941196 689.98692422 -114.91941555 689.99166095 -117.39937401 690.0037384 C-120.78596383 690.0191626 -124.1716273 690.00990032 -127.55819702 689.99447632 C-128.53855718 690.00476344 -129.51891734 690.01505057 -130.52898538 690.02564943 C-137.26373199 689.9579093 -142.67918963 688.69742311 -147.83640897 684.15891397 C-154.04481248 677.39761405 -153.6105508 669.34247511 -153.578125 660.72265625 C-153.58003845 659.59733994 -153.5819519 658.47202362 -153.58392334 657.31260681 C-153.58528038 654.93992895 -153.58161762 652.56724354 -153.57324219 650.19458008 C-153.56254619 646.57811666 -153.57314897 642.96215109 -153.5859375 639.34570312 C-153.58461562 637.03385308 -153.58205265 634.72200334 -153.578125 632.41015625 C-153.58217346 631.33596939 -153.58622192 630.26178253 -153.59039307 629.15504456 C-153.54505001 621.83406103 -153.21200415 615.55071879 -149.25 609.1875 C-143.67502754 604.08699328 -137.48817242 603.05604579 -130.08520508 603.34033203 C-127.21299257 603.5057302 -124.35658445 603.74776284 -121.4921875 604.015625 C-120.51749512 604.10618164 -119.54280273 604.19673828 -118.53857422 604.29003906 C-117.80396973 604.35932617 -117.06936523 604.42861328 -116.3125 604.5 C-115.73266095 597.83377357 -115.16437617 591.16662901 -114.60351562 584.4987793 C-114.41206435 582.23814444 -114.21812301 579.97771885 -114.02148438 577.7175293 C-112.88339973 564.61503951 -111.98449502 551.65550523 -112.3125 538.5 C-111.9825 538.5 -111.6525 538.5 -111.3125 538.5 C-109.13077409 516.66243167 -107.19439176 494.81061152 -105.37890029 472.93983912 C-105.01496306 468.56169326 -104.64849037 464.18375951 -104.28230286 459.80580139 C-103.58675628 451.48614596 -102.89312218 443.16633242 -102.20033771 434.84644657 C-100.98027543 420.19481902 -99.7571794 405.54344471 -98.53304112 390.8921572 C-98.08228603 385.49629774 -97.63246272 380.10036155 -97.1832844 374.70437062 C-95.73450887 357.30569639 -94.27077514 339.90864386 -92.74507225 322.51652753 C-92.52825492 320.04321733 -92.31216686 317.56984453 -92.09633732 315.09644794 C-91.95626605 313.49183401 -91.81618759 311.88722069 -91.67610168 310.28260803 C-91.60798595 309.50219125 -91.53987023 308.72177447 -91.46969038 307.91770869 C-91.0751656 303.4046522 -90.67507024 298.89213487 -90.27049208 294.37996912 C-90.08351231 292.28453972 -89.89928149 290.18888951 -89.71621513 288.09311485 C-89.49685583 285.58336129 -89.27317622 283.073979 -89.04382515 280.56511879 C-88.35013146 272.52689594 -88.19611579 264.56625156 -88.3125 256.5 C-87.6525 256.5 -86.9925 256.5 -86.3125 256.5 C-86.32410156 255.81035156 -86.33570313 255.12070312 -86.34765625 254.41015625 C-86.40592124 248.34227348 -86.10153948 242.51642604 -85.3125 236.5 C-85.9725 236.5 -86.6325 236.5 -87.3125 236.5 C-86.9825 235.84 -86.6525 235.18 -86.3125 234.5 C-85.9825 234.5 -85.6525 234.5 -85.3125 234.5 C-84.6525 228.23 -83.9925 221.96 -83.3125 215.5 C-85.808125 215.5825 -88.30375 215.665 -90.875 215.75 C-97.10738712 215.81311753 -101.46157719 215.79968159 -106.3125 211.5 C-111.24201977 205.01522584 -111.03849506 198.563652 -111.1875 190.625 C-111.23390625 189.39652344 -111.2803125 188.16804687 -111.328125 186.90234375 C-111.58256697 177.7717914 -111.67584878 168.72326077 -105.3125 161.5 C-99.12752965 157.99185821 -93.49361998 158.10986485 -86.5 158.25 C-85.45134766 158.25515625 -84.40269531 158.2603125 -83.32226562 158.265625 C-75.62238726 158.34505637 -75.62238726 158.34505637 -73.3125 159.5 C-73.9725 158.18 -74.6325 156.86 -75.3125 155.5 C-74.9825 155.17 -74.6525 154.84 -74.3125 154.5 C-74.21858704 152.59756238 -74.19506342 150.69161541 -74.19897461 148.78686523 C-74.19905014 147.5656749 -74.19912567 146.34448456 -74.19920349 145.08628845 C-74.20431089 143.74372314 -74.20952689 142.40115825 -74.21484375 141.05859375 C-74.21670801 139.69238842 -74.21813187 138.32618243 -74.21913147 136.9599762 C-74.22295606 133.35798305 -74.23278583 129.75603 -74.24383545 126.15405273 C-74.25405084 122.48096255 -74.25862936 118.80786591 -74.26367188 115.13476562 C-74.27440816 107.92315877 -74.29148386 100.711585 -74.3125 93.5 C-74.88693848 93.45512451 -75.46137695 93.41024902 -76.05322266 93.36401367 C-78.68252994 93.15130626 -81.30983361 92.91956789 -83.9375 92.6875 C-85.29294922 92.58211914 -85.29294922 92.58211914 -86.67578125 92.47460938 C-91.8114468 92.00602675 -95.88225431 91.37678292 -100.3125 88.5 C-101.1875 86.3125 -101.1875 86.3125 -101.3125 84.5 C-102.3025 84.5 -103.2925 84.5 -104.3125 84.5 C-103.9389511 82.76588276 -103.53751346 81.03776347 -103.125 79.3125 C-102.90457031 78.34957031 -102.68414062 77.38664062 -102.45703125 76.39453125 C-99.85181604 69.80591531 -93.82114556 66.75108554 -88 63.3125 C-85.38290893 61.76593356 -82.84786344 60.18329065 -80.3125 58.5 C-80.3125 57.84 -80.3125 57.18 -80.3125 56.5 C-79.59320313 56.39800293 -78.87390625 56.29600586 -78.1328125 56.19091797 C-74.97209688 55.41660831 -72.90994973 54.21744442 -70.1875 52.4453125 C-68.75664062 51.52298828 -68.75664062 51.52298828 -67.296875 50.58203125 C-66.31203125 49.93621094 -65.3271875 49.29039062 -64.3125 48.625 C-62.35443417 47.35635787 -60.39610949 46.08811513 -58.4375 44.8203125 C-57.57382812 44.25586426 -56.71015625 43.69141602 -55.8203125 43.10986328 C-54.10796523 42.01064036 -52.37189514 40.94773544 -50.6171875 39.91748047 C-48.22983339 38.57190809 -48.22983339 38.57190809 -46.3125 36.5 C-45.07940738 35.78261668 -43.82589202 35.10006837 -42.5625 34.4375 C-37.52942356 31.71159237 -32.77261012 28.6155719 -28.01074219 25.44702148 C-23.52443658 22.5 -23.52443658 22.5 -21.3125 22.5 C-21.44527344 21.90832031 -21.57804688 21.31664062 -21.71484375 20.70703125 C-22.07854689 19.07965882 -22.43506439 17.45066727 -22.78515625 15.8203125 C-23.30348548 13.39997389 -23.30348548 13.39997389 -24.1875 10.6875 C-24.3125 8.5 -24.3125 8.5 -22.6875 6.5 C-21.90375 5.84 -21.12 5.18 -20.3125 4.5 C-19.466875 3.613125 -18.62125 2.72625 -17.75 1.8125 C-12.81072366 -2.87348012 -5.96702097 -2.70204723 0 0 Z M-47.3125 91.5 C-47.3125 113.61 -47.3125 135.72 -47.3125 158.5 C-34.23353601 158.73607672 -34.23353601 158.73607672 -21.15429688 158.953125 C-15.82108602 159.03740157 -10.48797685 159.12392303 -5.1550293 159.22363281 C-0.85633219 159.30386626 3.44242245 159.37418173 7.74139977 159.43757248 C9.38293134 159.46353068 11.02441004 159.49308496 12.66581154 159.52626419 C14.96182401 159.5720662 17.25769044 159.60517072 19.55395508 159.63525391 C21.5158654 159.66856308 21.5158654 159.66856308 23.51741028 159.70254517 C26.84669365 159.75535597 26.84669365 159.75535597 29.6875 157.5 C30.12773626 154.6305843 30.12773626 154.6305843 30.02807617 151.21435547 C30.02861858 150.23268748 30.02861858 150.23268748 30.02917194 149.23118782 C30.02692999 147.1095448 30.00407333 144.98868932 29.98046875 142.8671875 C29.97744751 141.57176025 29.97442627 140.27633301 29.97131348 138.94165039 C29.95557514 134.08601963 29.91369153 129.23050211 29.875 124.375 C29.813125 113.52625 29.75125 102.6775 29.6875 91.5 C4.2775 91.5 -21.1325 91.5 -47.3125 91.5 Z " fill="#000000" transform="translate(520.3125,167.5)"/>
<path d="M0 0 C1.25711792 0.2205455 2.51423584 0.441091 3.80944824 0.6683197 C7.10926376 1.24767065 10.40814236 1.83180953 13.70654297 2.41912842 C18.37472584 3.25016352 23.04368303 4.07666758 27.71374512 4.89707947 C30.19081407 5.33241533 32.66716924 5.77183734 35.1427002 6.21583557 C36.82099915 6.51130531 36.82099915 6.51130531 38.53320312 6.81274414 C39.51325317 6.98737686 40.49330322 7.16200958 41.50305176 7.3419342 C44.11526646 7.70063378 46.58614587 7.78405281 49.21875 7.71484375 C49.21875 8.37484375 49.21875 9.03484375 49.21875 9.71484375 C49.98243896 9.76020264 50.74612793 9.80556152 51.53295898 9.85229492 C60.21136229 10.43547004 68.70427718 11.6026632 77.28125 13.02734375 C78.6575466 13.25255629 80.03384875 13.4777349 81.41015625 13.70288086 C89.65132211 15.06243816 97.85848554 16.54880787 106.03393555 18.26269531 C110.45550089 19.18492215 114.8791922 20.00999052 119.3359375 20.74609375 C120.89731445 21.00507446 120.89731445 21.00507446 122.49023438 21.26928711 C124.50319963 21.59881674 126.51748296 21.92043029 128.53320312 22.23266602 C134.95946697 23.28729335 140.16709222 24.33924 144.59375 29.46484375 C146.52415652 33.3256568 146.82813288 35.44916361 146.21875 39.71484375 C143.88963204 44.20055242 141.70437334 46.48598601 137.21875 48.71484375 C134.32864069 49.53053185 131.40274245 50.04037762 128.4453125 50.55078125 C127.53850739 50.7152475 126.63170227 50.87971375 125.69741821 51.04916382 C122.53994875 51.61689138 119.37971982 52.1669515 116.21875 52.71484375 C115.03986206 52.92129517 113.86097412 53.12774658 112.6463623 53.3404541 C103.71792874 54.90263229 94.78428963 56.43322989 85.84896851 57.95541 C82.79766097 58.47554833 79.74661138 58.99719111 76.69556046 59.51883221 C46.87558414 64.61700347 17.05012719 69.68381704 -12.78125 74.71484375 C-14.54178711 75.01261719 -14.54178711 75.01261719 -16.33789062 75.31640625 C-21.53557512 76.16399029 -25.32738957 76.41485062 -30.15625 74.08984375 C-35.24497504 69.48575919 -35.29442291 63.21417856 -35.78125 56.71484375 C-35.87026486 52.77072284 -35.80842929 48.83461892 -35.73046875 44.890625 C-35.7116011 43.78559128 -35.69273346 42.68055756 -35.67329407 41.54203796 C-35.63163671 39.21994536 -35.58692454 36.89790575 -35.53930664 34.57592773 C-35.46876174 31.02793434 -35.41456597 27.47993089 -35.36132812 23.93164062 C-35.3187012 21.66794984 -35.27511445 19.40427687 -35.23046875 17.140625 C-35.21578049 16.08426346 -35.20109222 15.02790192 -35.18595886 13.93952942 C-35.06806202 8.87829294 -34.95029551 4.39112183 -32.78125 -0.28515625 C-24.8741531 -6.91002122 -9.25509191 -1.6668141 0 0 Z " fill="#020202" transform="translate(264.78125,256.28515625)"/>
<path d="M0 0 C2.42640362 6.9885183 2.30632838 13.8860101 2.30078125 21.22265625 C2.30506638 22.48210556 2.3093515 23.74155487 2.31376648 25.03916931 C2.31949143 27.69267894 2.3209666 30.34579715 2.31567383 32.99926758 C2.30986918 36.38398853 2.32685341 39.76816403 2.3500185 43.15279484 C2.36836089 46.40524417 2.3645696 49.65766456 2.36328125 52.91015625 C2.372491 54.11761002 2.38170074 55.32506378 2.39118958 56.56910706 C2.35698167 62.80161012 2.14019932 67.54656959 -1 73 C-4.31083601 75.93245475 -7.02706937 76.26288018 -11.3649292 76.19848633 C-16.71631107 75.79539426 -21.98320127 74.74732397 -27.25577164 73.77764893 C-29.483283 73.36801736 -31.71219295 72.96693703 -33.94161987 72.56787109 C-37.86939888 71.86339797 -41.7958041 71.15158294 -45.72180176 70.43725586 C-52.01118315 69.29291878 -58.30157215 68.15438724 -64.59386826 67.02618408 C-66.78266502 66.63178372 -68.97020697 66.23090223 -71.15774536 65.82958984 C-72.50631687 65.58663011 -73.85493702 65.34394008 -75.20361328 65.1015625 C-76.37417267 64.88838379 -77.54473206 64.67520508 -78.75076294 64.45556641 C-81.88380958 64.01629073 -84.84142643 63.91555677 -88 64 C-88 63.34 -88 62.68 -88 62 C-89.60416667 61.85416667 -91.20833333 61.70833333 -92.8125 61.5625 C-93.8128125 61.4696875 -94.813125 61.376875 -95.84375 61.28125 C-97.88412342 61.09943455 -99.92583028 60.93178093 -101.96875 60.78125 C-102.9071875 60.7090625 -103.845625 60.636875 -104.8125 60.5625 C-105.66457031 60.50191406 -106.51664063 60.44132812 -107.39453125 60.37890625 C-110 60 -110 60 -112.4284668 59.10498047 C-117.45895442 57.5486207 -122.55895909 56.78680091 -127.75 55.94140625 C-130.0729615 55.55169944 -132.39587678 55.16171706 -134.71875 54.77148438 C-138.36528376 54.16446632 -142.01226633 53.56048643 -145.66015625 52.96166992 C-149.19156748 52.38000611 -152.7208232 51.78645539 -156.25 51.19140625 C-157.33764648 51.0163002 -158.42529297 50.84119415 -159.54589844 50.66078186 C-171.71118955 48.59398518 -171.71118955 48.59398518 -175.875 43.875 C-177.97305403 38.51330636 -177.81131756 33.90483254 -175.5625 28.625 C-169.41471665 22.32727071 -158.93158335 21.94201212 -150.62109375 20.57421875 C-149.28253293 20.34826484 -147.94409115 20.12160478 -146.60575867 19.89430237 C-143.72686123 19.40662429 -140.84729595 18.92319895 -137.96710205 18.4432373 C-130.97716042 17.27833771 -123.99045 16.09429432 -117.00356293 14.91123581 C-115.35963499 14.63299513 -113.71565757 14.35504663 -112.07163239 14.07738113 C-98.65539806 11.81109304 -85.25300213 9.47182792 -71.85546875 7.09765625 C-70.01719866 6.77248873 -68.17891645 6.44738972 -66.34062195 6.12236023 C-55.5709163 4.21758903 -55.5709163 4.21758903 -44.80368042 2.29891968 C-40.59581302 1.54625084 -36.38687481 0.79987617 -32.17710304 0.05793571 C-30.62773789 -0.2164063 -29.07880005 -0.49317464 -27.53034019 -0.7725811 C-25.40166249 -1.15646109 -23.27163954 -1.53181002 -21.14111328 -1.90527344 C-19.94882111 -2.11778748 -18.75652893 -2.33030151 -17.52810669 -2.54925537 C-11.25084632 -3.35122698 -5.29001237 -4.03048561 0 0 Z " fill="#020202" transform="translate(792,256)"/>
<path d="M0 0 C0.66 0.33 1.32 0.66 2 1 C-0.31 3.31 -2.62 5.62 -5 8 C-5.33 7.34 -5.66 6.68 -6 6 C-4 4 -2 2 0 0 Z " fill="#202020" transform="translate(425,235)"/>
<path d="M0 0 C0.66 0 1.32 0 2 0 C2 1.65 2 3.3 2 5 C0 1.125 0 1.125 0 0 Z " fill="#3D3C3B" transform="translate(416,592)"/>
<path d="M0 0 C0.99 0 1.98 0 3 0 C3 0.66 3 1.32 3 2 C2.01 2 1.02 2 0 2 C0 1.34 0 0.68 0 0 Z " fill="#393A3A" transform="translate(443,261)"/>
<path d="M0 0 C0.33 0 0.66 0 1 0 C1 1.65 1 3.3 1 5 C0.67 5 0.34 5 0 5 C0 3.35 0 1.7 0 0 Z " fill="#3B3A39" transform="translate(416,604)"/>
<path d="M0 0 C0.33 0 0.66 0 1 0 C1 1.65 1 3.3 1 5 C0.67 5 0.34 5 0 5 C0 3.35 0 1.7 0 0 Z " fill="#3A3A3A" transform="translate(432,416)"/>
<path d="M0 0 C1.32 0.33 2.64 0.66 4 1 C2.68 1.33 1.36 1.66 0 2 C0 1.34 0 0.68 0 0 Z " fill="#454645" transform="translate(748,256)"/>
<path d="M0 0 C0.99 0.33 1.98 0.66 3 1 C2.01 1 1.02 1 0 1 C0 0.67 0 0.34 0 0 Z " fill="#3B3B3B" transform="translate(398,769)"/>
<path d="M0 0 C0.66 0 1.32 0 2 0 C2 0.66 2 1.32 2 2 C1.34 2 0.68 2 0 2 C0 1.34 0 0.68 0 0 Z " fill="#404140" transform="translate(390,769)"/>
<path d="M0 0 C1 4 1 4 1 4 Z " fill="#3F3F3E" transform="translate(410,680)"/>
<path d="M0 0 C4 1 4 1 4 1 Z " fill="#424241" transform="translate(688,317)"/>
<path d="M0 0 C0.99 1.485 0.99 1.485 2 3 C1.34 3 0.68 3 0 3 C0 2.01 0 1.02 0 0 Z " fill="#3C3B3A" transform="translate(523,260)"/>
<path d="M0 0 C0.99 0.33 1.98 0.66 3 1 C2.01 1.33 1.02 1.66 0 2 C0 1.34 0 0.68 0 0 Z " fill="#3C3C3C" transform="translate(464,208)"/>
<path d="" fill="#424444" transform="translate(0,0)"/>
<path d="M0 0 C0.99 0.495 0.99 0.495 2 1 C1.01 1.495 1.01 1.495 0 2 C0 1.34 0 0.68 0 0 Z " fill="#393839" transform="translate(432,408)"/>
<path d="M0 0 C3 1 3 1 3 1 Z " fill="#464546" transform="translate(289,325)"/>
<path d="M0 0 C3 1 3 1 3 1 Z " fill="#414041" transform="translate(694,318)"/>
<path d="M0 0 C3 1 3 1 3 1 Z " fill="#434242" transform="translate(660,272)"/>
<path d="M0 0 C3 1 3 1 3 1 Z " fill="#454444" transform="translate(704,264)"/>
<path d="" fill="#383738" transform="translate(0,0)"/>
<path d="M0 0 C3 1 3 1 3 1 Z " fill="#454744" transform="translate(738,258)"/>
<path d="M0 0 C3 1 3 1 3 1 Z " fill="#3A393C" transform="translate(557,208)"/>
<path d="M0 0 C2 1 2 1 2 1 Z " fill="#3B3839" transform="translate(564,858)"/>
<path d="M0 0 C2 1 2 1 2 1 Z " fill="#393838" transform="translate(532,858)"/>
<path d="" fill="#484747" transform="translate(0,0)"/>
<path d="" fill="#494949" transform="translate(0,0)"/>
<path d="" fill="#3F3F40" transform="translate(0,0)"/>
<path d="" fill="#3D3D3E" transform="translate(0,0)"/>
<path d="" fill="#3F3F3D" transform="translate(0,0)"/>
<path d="" fill="#3B3B3B" transform="translate(0,0)"/>
<path d="" fill="#3A3C3C" transform="translate(0,0)"/>
<path d="" fill="#4D4D4D" transform="translate(0,0)"/>
<path d="M0 0 C2 1 2 1 2 1 Z " fill="#41423F" transform="translate(409,331)"/>
<path d="" fill="#414241" transform="translate(0,0)"/>
<path d="M0 0 C2 1 2 1 2 1 Z " fill="#525352" transform="translate(228,324)"/>
<path d="M0 0 C2 1 2 1 2 1 Z " fill="#454343" transform="translate(722,323)"/>
<path d="M0 0 C2 1 2 1 2 1 Z " fill="#454646" transform="translate(302,323)"/>
<path d="" fill="#373837" transform="translate(0,0)"/>
<path d="M0 0 C2 1 2 1 2 1 Z " fill="#444545" transform="translate(337,317)"/>
<path d="M0 0 C2 1 2 1 2 1 Z " fill="#424041" transform="translate(372,311)"/>
<path d="M0 0 C2 1 2 1 2 1 Z " fill="#434441" transform="translate(647,310)"/>
<path d="M0 0 C2 1 2 1 2 1 Z " fill="#444543" transform="translate(641,309)"/>
<path d="" fill="#484948" transform="translate(0,0)"/>
<path d="" fill="#333434" transform="translate(0,0)"/>
<path d="M0 0 C2 1 2 1 2 1 Z " fill="#444443" transform="translate(649,274)"/>
<path d="M0 0 C2 1 2 1 2 1 Z " fill="#464645" transform="translate(701,264)"/>
<path d="M0 0 C2 1 2 1 2 1 Z " fill="#444445" transform="translate(318,264)"/>
<path d="M0 0 C2 1 2 1 2 1 Z " fill="#3C3B3C" transform="translate(513,261)"/>
<path d="M0 0 C2 1 2 1 2 1 Z " fill="#3B3A3B" transform="translate(542,260)"/>
<path d="M0 0 C2 1 2 1 2 1 Z " fill="#3C3B3C" transform="translate(526,260)"/>
<path d="M0 0 C2 1 2 1 2 1 Z " fill="#403E3F" transform="translate(429,260)"/>
<path d="M0 0 C2 1 2 1 2 1 Z " fill="#484747" transform="translate(277,257)"/>
<path d="M0 0 C2 1 2 1 2 1 Z " fill="#434243" transform="translate(270,256)"/>
<path d="" fill="#575655" transform="translate(0,0)"/>
<path d="" fill="#4E4F50" transform="translate(0,0)"/>
<path d="M0 0 C2 1 2 1 2 1 Z " fill="#50504F" transform="translate(240,251)"/>
<path d="M0 0 C2 1 2 1 2 1 Z " fill="#505150" transform="translate(244,249)"/>
<path d="" fill="#767676" transform="translate(0,0)"/>
<path d="" fill="#777676" transform="translate(0,0)"/>
<path d="" fill="#7A7A7A" transform="translate(0,0)"/>
<path d="" fill="#787878" transform="translate(0,0)"/>
<path d="" fill="#787978" transform="translate(0,0)"/>
<path d="" fill="#7A7878" transform="translate(0,0)"/>
<path d="" fill="#7C7D7C" transform="translate(0,0)"/>
<path d="" fill="#464645" transform="translate(0,0)"/>
<path d="" fill="#3D3B3B" transform="translate(0,0)"/>
<path d="" fill="#3B3B3A" transform="translate(0,0)"/>
<path d="" fill="#3C3B38" transform="translate(0,0)"/>
<path d="" fill="#3A3839" transform="translate(0,0)"/>
<path d="" fill="#3A3939" transform="translate(0,0)"/>
<path d="" fill="#3A393A" transform="translate(0,0)"/>
<path d="" fill="#3A3839" transform="translate(0,0)"/>
<path d="" fill="#393937" transform="translate(0,0)"/>
<path d="" fill="#39393A" transform="translate(0,0)"/>
<path d="" fill="#3B3939" transform="translate(0,0)"/>
<path d="" fill="#3B3B39" transform="translate(0,0)"/>
<path d="" fill="#3C3B3B" transform="translate(0,0)"/>
<path d="" fill="#3A3B3B" transform="translate(0,0)"/>
<path d="" fill="#3C3B3C" transform="translate(0,0)"/>
<path d="" fill="#3F3F3E" transform="translate(0,0)"/>
<path d="" fill="#414243" transform="translate(0,0)"/>
<path d="" fill="#71716F" transform="translate(0,0)"/>
<path d="" fill="#3F4240" transform="translate(0,0)"/>
<path d="" fill="#464645" transform="translate(0,0)"/>
<path d="" fill="#444444" transform="translate(0,0)"/>
<path d="" fill="#413F41" transform="translate(0,0)"/>
<path d="" fill="#3C3C3A" transform="translate(0,0)"/>
<path d="" fill="#3B3B3B" transform="translate(0,0)"/>
<path d="" fill="#414040" transform="translate(0,0)"/>
<path d="" fill="#434342" transform="translate(0,0)"/>
<path d="" fill="#3D3D3E" transform="translate(0,0)"/>
<path d="" fill="#3F403F" transform="translate(0,0)"/>
<path d="" fill="#424241" transform="translate(0,0)"/>
<path d="" fill="#3F3E3F" transform="translate(0,0)"/>
<path d="" fill="#3B3C3C" transform="translate(0,0)"/>
<path d="" fill="#3F3F3E" transform="translate(0,0)"/>
<path d="" fill="#3F3E3D" transform="translate(0,0)"/>
<path d="" fill="#403E3D" transform="translate(0,0)"/>
<path d="" fill="#3F3F3E" transform="translate(0,0)"/>
<path d="" fill="#3D3E3E" transform="translate(0,0)"/>
<path d="" fill="#3F3F40" transform="translate(0,0)"/>
<path d="" fill="#3F4040" transform="translate(0,0)"/>
<path d="" fill="#3E3D3C" transform="translate(0,0)"/>
<path d="" fill="#828282" transform="translate(0,0)"/>
<path d="" fill="#666664" transform="translate(0,0)"/>
<path d="" fill="#848485" transform="translate(0,0)"/>
<path d="" fill="#3D3F3C" transform="translate(0,0)"/>
<path d="" fill="#3B3C3E" transform="translate(0,0)"/>
<path d="" fill="#3C3D3C" transform="translate(0,0)"/>
<path d="" fill="#3E3D3C" transform="translate(0,0)"/>
<path d="" fill="#3D3C3C" transform="translate(0,0)"/>
<path d="" fill="#3D3C3E" transform="translate(0,0)"/>
<path d="" fill="#3F3D3E" transform="translate(0,0)"/>
<path d="" fill="#3F403F" transform="translate(0,0)"/>
<path d="" fill="#414040" transform="translate(0,0)"/>
<path d="" fill="#3E3D3E" transform="translate(0,0)"/>
<path d="" fill="#424040" transform="translate(0,0)"/>
<path d="" fill="#7E7E7E" transform="translate(0,0)"/>
<path d="" fill="#808081" transform="translate(0,0)"/>
<path d="" fill="#41403F" transform="translate(0,0)"/>
<path d="" fill="#7D7D7F" transform="translate(0,0)"/>
<path d="" fill="#3C3C3E" transform="translate(0,0)"/>
<path d="" fill="#3B3B3B" transform="translate(0,0)"/>
<path d="" fill="#3B3A3A" transform="translate(0,0)"/>
<path d="" fill="#373737" transform="translate(0,0)"/>
<path d="" fill="#363536" transform="translate(0,0)"/>
<path d="" fill="#333433" transform="translate(0,0)"/>
<path d="" fill="#373738" transform="translate(0,0)"/>
<path d="" fill="#6F7071" transform="translate(0,0)"/>
<path d="" fill="#404140" transform="translate(0,0)"/>
<path d="" fill="#41413E" transform="translate(0,0)"/>
<path d="" fill="#3C3E3E" transform="translate(0,0)"/>
<path d="" fill="#3A3B3B" transform="translate(0,0)"/>
<path d="" fill="#777978" transform="translate(0,0)"/>
<path d="" fill="#797A7B" transform="translate(0,0)"/>
<path d="" fill="#3A3A3D" transform="translate(0,0)"/>
<path d="" fill="#3D3E3D" transform="translate(0,0)"/>
<path d="" fill="#565655" transform="translate(0,0)"/>
<path d="" fill="#4A4949" transform="translate(0,0)"/>
<path d="" fill="#535352" transform="translate(0,0)"/>
<path d="" fill="#525150" transform="translate(0,0)"/>
<path d="" fill="#474847" transform="translate(0,0)"/>
<path d="" fill="#3F3E3F" transform="translate(0,0)"/>
<path d="" fill="#3E3E3E" transform="translate(0,0)"/>
<path d="" fill="#555556" transform="translate(0,0)"/>
<path d="" fill="#424140" transform="translate(0,0)"/>
<path d="" fill="#424042" transform="translate(0,0)"/>
<path d="" fill="#444042" transform="translate(0,0)"/>
<path d="" fill="#42423F" transform="translate(0,0)"/>
<path d="" fill="#434040" transform="translate(0,0)"/>
<path d="" fill="#434241" transform="translate(0,0)"/>
<path d="" fill="#3D3D3D" transform="translate(0,0)"/>
<path d="" fill="#3A3A39" transform="translate(0,0)"/>
<path d="" fill="#383837" transform="translate(0,0)"/>
<path d="" fill="#3F3E3B" transform="translate(0,0)"/>
<path d="" fill="#3C3C3A" transform="translate(0,0)"/>
<path d="" fill="#393936" transform="translate(0,0)"/>
<path d="" fill="#393838" transform="translate(0,0)"/>
<path d="" fill="#444445" transform="translate(0,0)"/>
<path d="" fill="#353836" transform="translate(0,0)"/>
<path d="" fill="#393938" transform="translate(0,0)"/>
<path d="" fill="#3B3C39" transform="translate(0,0)"/>
<path d="" fill="#3C3B38" transform="translate(0,0)"/>
<path d="" fill="#3E3F3D" transform="translate(0,0)"/>
<path d="" fill="#454342" transform="translate(0,0)"/>
<path d="" fill="#434241" transform="translate(0,0)"/>
<path d="" fill="#454544" transform="translate(0,0)"/>
<path d="" fill="#4D504E" transform="translate(0,0)"/>
<path d="" fill="#393A3A" transform="translate(0,0)"/>
<path d="" fill="#454445" transform="translate(0,0)"/>
<path d="" fill="#444442" transform="translate(0,0)"/>
<path d="" fill="#434341" transform="translate(0,0)"/>
<path d="" fill="#464345" transform="translate(0,0)"/>
<path d="" fill="#3C3B3B" transform="translate(0,0)"/>
<path d="" fill="#474342" transform="translate(0,0)"/>
<path d="" fill="#373837" transform="translate(0,0)"/>
<path d="" fill="#777976" transform="translate(0,0)"/>
<path d="" fill="#434643" transform="translate(0,0)"/>
<path d="" fill="#484646" transform="translate(0,0)"/>
<path d="" fill="#414443" transform="translate(0,0)"/>
<path d="" fill="#444343" transform="translate(0,0)"/>
<path d="" fill="#444444" transform="translate(0,0)"/>
<path d="" fill="#434141" transform="translate(0,0)"/>
<path d="" fill="#434443" transform="translate(0,0)"/>
<path d="" fill="#494949" transform="translate(0,0)"/>
<path d="" fill="#434342" transform="translate(0,0)"/>
<path d="" fill="#414142" transform="translate(0,0)"/>
<path d="" fill="#4C4949" transform="translate(0,0)"/>
<path d="" fill="#4B4A4A" transform="translate(0,0)"/>
<path d="" fill="#3C3E3C" transform="translate(0,0)"/>
<path d="" fill="#434141" transform="translate(0,0)"/>
<path d="" fill="#353735" transform="translate(0,0)"/>
<path d="" fill="#3D3C3C" transform="translate(0,0)"/>
<path d="" fill="#4A4949" transform="translate(0,0)"/>
<path d="" fill="#3B3A3A" transform="translate(0,0)"/>
<path d="" fill="#353534" transform="translate(0,0)"/>
<path d="" fill="#484847" transform="translate(0,0)"/>
<path d="" fill="#414344" transform="translate(0,0)"/>
<path d="" fill="#3E4042" transform="translate(0,0)"/>
<path d="" fill="#454444" transform="translate(0,0)"/>
<path d="" fill="#494747" transform="translate(0,0)"/>
<path d="" fill="#474847" transform="translate(0,0)"/>
<path d="" fill="#464746" transform="translate(0,0)"/>
<path d="" fill="#484747" transform="translate(0,0)"/>
<path d="" fill="#444442" transform="translate(0,0)"/>
<path d="" fill="#444644" transform="translate(0,0)"/>
<path d="" fill="#454444" transform="translate(0,0)"/>
<path d="" fill="#454443" transform="translate(0,0)"/>
<path d="" fill="#424442" transform="translate(0,0)"/>
<path d="" fill="#414343" transform="translate(0,0)"/>
<path d="" fill="#353635" transform="translate(0,0)"/>
<path d="" fill="#3D3C3B" transform="translate(0,0)"/>
<path d="" fill="#494847" transform="translate(0,0)"/>
<path d="" fill="#494847" transform="translate(0,0)"/>
<path d="" fill="#4B4A47" transform="translate(0,0)"/>
<path d="" fill="#4A4A47" transform="translate(0,0)"/>
<path d="" fill="#444746" transform="translate(0,0)"/>
<path d="" fill="#4D4F4D" transform="translate(0,0)"/>
<path d="" fill="#454842" transform="translate(0,0)"/>
<path d="" fill="#373533" transform="translate(0,0)"/>
<path d="" fill="#454743" transform="translate(0,0)"/>
<path d="" fill="#424041" transform="translate(0,0)"/>
<path d="" fill="#434343" transform="translate(0,0)"/>
<path d="" fill="#363835" transform="translate(0,0)"/>
<path d="" fill="#3B3D3C" transform="translate(0,0)"/>
<path d="" fill="#3A3A3A" transform="translate(0,0)"/>
<path d="" fill="#3A3937" transform="translate(0,0)"/>
<path d="" fill="#3D393B" transform="translate(0,0)"/>
<path d="" fill="#3B3B3B" transform="translate(0,0)"/>
<path d="" fill="#3D3C3B" transform="translate(0,0)"/>
<path d="" fill="#3B3A3A" transform="translate(0,0)"/>
<path d="" fill="#3C3A3C" transform="translate(0,0)"/>
<path d="" fill="#3D3B3C" transform="translate(0,0)"/>
<path d="" fill="#474846" transform="translate(0,0)"/>
<path d="" fill="#454342" transform="translate(0,0)"/>
<path d="" fill="#3E3B3B" transform="translate(0,0)"/>
<path d="" fill="#3C3D3C" transform="translate(0,0)"/>
<path d="" fill="#3B3D3C" transform="translate(0,0)"/>
<path d="" fill="#474747" transform="translate(0,0)"/>
<path d="" fill="#484948" transform="translate(0,0)"/>
<path d="" fill="#4A4847" transform="translate(0,0)"/>
<path d="" fill="#454848" transform="translate(0,0)"/>
<path d="" fill="#484746" transform="translate(0,0)"/>
<path d="" fill="#565656" transform="translate(0,0)"/>
<path d="" fill="#4A4849" transform="translate(0,0)"/>
<path d="" fill="#4A4B47" transform="translate(0,0)"/>
<path d="" fill="#49494A" transform="translate(0,0)"/>
<path d="" fill="#484848" transform="translate(0,0)"/>
<path d="" fill="#545253" transform="translate(0,0)"/>
<path d="" fill="#4D4E4E" transform="translate(0,0)"/>
<path d="" fill="#4E504F" transform="translate(0,0)"/>
<path d="" fill="#4F5150" transform="translate(0,0)"/>
<path d="" fill="#48494A" transform="translate(0,0)"/>
<path d="" fill="#494847" transform="translate(0,0)"/>
<path d="" fill="#49484A" transform="translate(0,0)"/>
<path d="" fill="#434444" transform="translate(0,0)"/>
<path d="" fill="#3E4141" transform="translate(0,0)"/>
<path d="" fill="#4A4A4A" transform="translate(0,0)"/>
<path d="" fill="#424241" transform="translate(0,0)"/>
<path d="" fill="#454646" transform="translate(0,0)"/>
<path d="" fill="#464445" transform="translate(0,0)"/>
<path d="" fill="#3E3F3E" transform="translate(0,0)"/>
<path d="" fill="#3E3E3E" transform="translate(0,0)"/>
<path d="" fill="#403C3D" transform="translate(0,0)"/>
<path d="" fill="#403F3E" transform="translate(0,0)"/>
<path d="" fill="#424343" transform="translate(0,0)"/>
<path d="" fill="#454343" transform="translate(0,0)"/>
<path d="" fill="#42413E" transform="translate(0,0)"/>
<path d="" fill="#3F3F3A" transform="translate(0,0)"/>
<path d="" fill="#434344" transform="translate(0,0)"/>
<path d="" fill="#3B3A3E" transform="translate(0,0)"/>
<path d="" fill="#42403F" transform="translate(0,0)"/>
<path d="" fill="#3B3C3D" transform="translate(0,0)"/>
<path d="" fill="#3F3E40" transform="translate(0,0)"/>
<path d="" fill="#3F3C3C" transform="translate(0,0)"/>
<path d="" fill="#414444" transform="translate(0,0)"/>
<path d="" fill="#504E4F" transform="translate(0,0)"/>
<path d="" fill="#515252" transform="translate(0,0)"/>
<path d="" fill="#818283" transform="translate(0,0)"/>
<path d="" fill="#818281" transform="translate(0,0)"/>
<path d="" fill="#848685" transform="translate(0,0)"/>
<path d="" fill="#858584" transform="translate(0,0)"/>
</svg>
