<?xml version="1.0" standalone="no"?>
<!DOCTYPE svg PUBLIC "-//W3C//DTD SVG 20010904//EN"
 "http://www.w3.org/TR/2001/REC-SVG-20010904/DTD/svg10.dtd">
<svg version="1.0" xmlns="http://www.w3.org/2000/svg"
 width="1024.000000pt" height="1024.000000pt" viewBox="0 0 1024.000000 1024.000000"
 preserveAspectRatio="xMidYMid meet">

<g transform="translate(0.000000,1024.000000) scale(0.100000,-0.100000)"
fill="#000000" stroke="none">
<path d="M4950 8897 c-62 -41 -71 -70 -82 -250 -6 -97 -8 -1268 -6 -2912 l3
-2750 -140 1 c-141 1 -568 16 -1005 34 -129 6 -408 17 -620 25 -212 9 -493 20
-625 25 -698 28 -826 32 -840 26 -27 -10 -17 -36 62 -165 419 -689 950 -1300
1283 -1475 36 -19 101 -47 145 -62 74 -25 98 -27 305 -34 412 -15 4045 -23
4140 -10 103 14 230 56 308 101 80 48 220 189 270 274 58 100 462 1022 462
1056 0 15 -5 31 -11 34 -10 7 -96 11 -699 35 -146 5 -641 26 -1100 45 -459 19
-1005 42 -1214 50 -208 8 -382 18 -387 21 -10 6 -12 463 -3 488 8 20 98 21
579 6 1423 -43 2092 -55 2110 -40 36 29 28 47 -182 430 -75 135 -152 277 -173
315 -89 165 -552 1007 -720 1310 -100 182 -220 398 -265 480 -45 83 -180 326
-300 540 -120 215 -320 575 -445 800 -125 226 -314 568 -421 760 l-194 350 -1
198 c-3 222 -10 253 -73 294 -46 31 -116 31 -161 0z"/>
<path d="M4657 8178 c-137 -182 -1797 -2909 -2472 -4063 -302 -515 -300 -510
-273 -533 13 -11 394 -23 2046 -69 583 -16 634 -16 649 -1 15 15 14 28 -5 160
-132 891 -138 1740 -22 3203 11 138 29 365 40 505 11 140 32 383 46 539 14
155 23 285 21 288 -3 2 -16 -11 -30 -29z"/>
</g>
</svg>
