<?xml version="1.0" standalone="no"?>
<!DOCTYPE svg PUBLIC "-//W3C//DTD SVG 20010904//EN"
 "http://www.w3.org/TR/2001/REC-SVG-20010904/DTD/svg10.dtd">
<svg version="1.0" xmlns="http://www.w3.org/2000/svg"
 width="1024.000000pt" height="1024.000000pt" viewBox="0 0 1024.000000 1024.000000"
 preserveAspectRatio="xMidYMid meet">

<g transform="translate(0.000000,1024.000000) scale(0.100000,-0.100000)"
fill="#000000" stroke="none">
<path d="M5035 8805 c-48 -19 -99 -66 -128 -120 -20 -36 -22 -55 -21 -175 1
-149 19 -281 65 -461 l30 -117 -25 -36 c-26 -39 -41 -103 -31 -135 5 -17 -1
-20 -57 -26 -445 -47 -908 -228 -1261 -494 l-98 -73 -16 22 c-22 32 -90 59
-148 60 l-50 1 -59 102 c-155 268 -286 431 -382 476 -104 49 -236 8 -298 -93
-38 -61 -47 -154 -21 -221 26 -71 98 -159 181 -225 70 -56 366 -240 386 -240
4 0 8 -11 8 -25 0 -36 26 -95 56 -126 l25 -26 -66 -89 c-262 -351 -443 -806
-496 -1251 l-12 -102 -62 6 c-76 7 -104 1 -143 -32 l-29 -24 -115 24 c-289 61
-486 79 -567 50 -102 -35 -161 -121 -161 -232 0 -108 48 -183 145 -229 83 -40
214 -30 548 40 134 28 159 31 169 19 30 -37 127 -57 198 -41 11 2 18 -26 32
-117 68 -464 265 -937 527 -1261 l49 -61 -35 -36 c-20 -19 -43 -57 -53 -86
l-17 -51 -158 -95 c-87 -53 -183 -114 -212 -137 -75 -58 -156 -148 -184 -205
-85 -175 26 -363 214 -363 135 0 219 83 427 423 l102 167 42 0 c58 0 110 17
145 46 17 14 35 23 40 20 5 -4 51 -37 101 -75 306 -229 730 -391 1176 -447 76
-10 140 -18 141 -19 1 0 -3 -19 -8 -41 -13 -48 0 -104 33 -154 l23 -34 -28
-110 c-70 -281 -93 -503 -62 -595 22 -66 55 -106 116 -136 65 -33 145 -34 214
-1 60 28 87 56 114 116 40 88 23 304 -45 581 l-35 143 26 48 c22 40 26 59 24
115 l-3 68 115 11 c271 27 534 99 791 214 158 72 360 193 476 288 43 34 44 34
58 14 21 -30 94 -55 149 -50 l46 3 71 -120 c219 -367 325 -475 468 -475 154 0
266 141 232 291 -31 134 -141 237 -451 425 -134 80 -134 81 -146 128 -8 31
-25 61 -48 83 l-35 36 83 111 c272 367 441 788 506 1258 13 97 5 89 84 73 34
-7 96 10 129 36 31 24 13 26 261 -25 312 -64 427 -59 517 22 59 54 82 105 82
182 0 160 -106 250 -294 250 -83 0 -334 -39 -464 -71 -48 -12 -81 -16 -85 -11
-3 6 -25 20 -49 32 -37 19 -53 22 -108 17 -74 -7 -64 -26 -90 158 -61 433
-246 878 -505 1212 -43 54 -50 69 -40 82 38 52 51 80 57 118 6 41 9 43 98 94
250 142 424 287 477 397 77 161 -36 352 -208 352 -138 0 -258 -120 -463 -462
l-82 -138 -38 0 c-64 0 -98 -11 -137 -45 l-37 -32 -83 62 c-281 215 -679 394
-1033 464 -93 18 -252 41 -287 41 -9 0 -13 16 -13 48 0 31 -9 66 -25 99 l-26
51 26 98 c61 236 91 501 66 599 -27 109 -105 175 -214 181 -40 2 -76 -2 -102
-11z m-95 -2208 l0 -623 -52 -13 c-48 -12 -117 -44 -173 -80 -19 -12 -42 9
-310 281 -492 497 -609 617 -604 621 151 119 291 201 481 283 167 71 461 143
631 152 l27 2 0 -623z m596 592 c304 -58 559 -166 817 -346 73 -51 87 -67 70
-75 -5 -2 -98 -95 -208 -208 -110 -113 -307 -314 -438 -447 l-239 -241 -62 33
c-33 19 -89 41 -123 51 -46 13 -63 22 -67 38 -3 12 -6 293 -6 625 l0 603 78
-7 c42 -4 122 -15 178 -26z m-1507 -1081 l444 -446 -22 -31 c-29 -40 -87 -167
-96 -208 l-7 -33 -629 0 c-554 0 -629 2 -629 15 0 84 65 374 115 515 44 122
139 313 211 423 68 104 155 217 164 214 3 -1 205 -203 449 -449z m2776 257
c78 -117 184 -326 235 -463 51 -140 110 -400 110 -483 l0 -29 -630 0 c-496 0
-631 3 -634 13 -18 70 -46 140 -78 193 l-37 65 307 312 c169 172 368 374 442
450 l135 139 38 -44 c21 -24 71 -92 112 -153z m-2446 -1362 c7 -25 28 -81 48
-124 l35 -78 -263 -273 c-145 -150 -343 -353 -439 -451 l-175 -178 -33 38
c-57 65 -152 212 -208 325 -127 254 -189 455 -228 751 l-5 37 628 0 629 0 11
-47z m2791 19 c0 -88 -61 -347 -121 -518 -62 -177 -225 -467 -328 -584 l-31
-35 -137 140 c-75 77 -275 282 -444 456 -184 188 -305 319 -299 325 16 16 67
128 86 187 l18 57 628 0 628 0 0 -28z m-2398 -505 c43 -21 103 -43 133 -50 31
-7 56 -16 55 -20 0 -4 0 -287 0 -628 l0 -622 -62 7 c-284 31 -631 150 -849
291 -98 63 -230 166 -227 176 5 13 863 888 868 886 3 -2 40 -20 82 -40z m1120
-285 c178 -180 377 -382 443 -450 l120 -123 -35 -30 c-79 -66 -252 -175 -375
-234 -202 -98 -452 -170 -662 -191 l-72 -6 -6 33 c-3 19 -4 301 -3 628 l3 594
56 13 c61 14 152 52 184 78 11 8 21 16 22 16 2 0 148 -147 325 -328z"/>
</g>
</svg>
