<svg width="40" height="40" viewBox="0 0 40 40" fill="none" xmlns="http://www.w3.org/2000/svg">
  <!-- Cloud shape -->
  <path d="M10 25C7.23858 25 5 22.7614 5 20C5 17.2386 7.23858 15 10 15C10.0836 15 10.1666 15.0021 10.2489 15.0063C11.0752 11.6159 14.1357 9 17.75 9C21.7165 9 24.9786 12.0304 25.4646 16.0003C25.643 16.0001 25.8215 16 26 16C30.4183 16 34 19.5817 34 24C34 28.4183 30.4183 32 26 32H10" stroke="#039BFF" stroke-width="2" stroke-linecap="round"/>
  <!-- Up/down arrows for data transfer -->
  <path d="M20 20L20 29" stroke="#023055" stroke-width="2" stroke-linecap="round"/>
  <path d="M17 26L20 29L23 26" stroke="#023055" stroke-width="2" stroke-linecap="round" stroke-linejoin="round"/>
  <path d="M16 20L16 15" stroke="#023055" stroke-width="2" stroke-linecap="round"/>
  <path d="M13 18L16 15L19 18" stroke="#023055" stroke-width="2" stroke-linecap="round" stroke-linejoin="round"/>
  <path d="M24 20L24 15" stroke="#023055" stroke-width="2" stroke-linecap="round"/>
  <path d="M21 18L24 15L27 18" stroke="#023055" stroke-width="2" stroke-linecap="round" stroke-linejoin="round"/>
</svg> 