<svg width="800" height="800" viewBox="0 0 800 800" fill="none" xmlns="http://www.w3.org/2000/svg">
  <rect width="800" height="800" fill="#D6F1FF"/>
  <path d="M0 500C66.6667 466.667 133.333 450 200 450C266.667 450 333.333 466.667 400 500C466.667 533.333 533.333 550 600 550C666.667 550 733.333 533.333 800 500V800H0V500Z" fill="#039BFF" fill-opacity="0.3"/>
  <path d="M0 600C66.6667 566.667 133.333 550 200 550C266.667 550 333.333 566.667 400 600C466.667 633.333 533.333 650 600 650C666.667 650 733.333 633.333 800 600V800H0V600Z" fill="#039BFF" fill-opacity="0.5"/>
  <path d="M0 700C66.6667 666.667 133.333 650 200 650C266.667 650 333.333 666.667 400 700C466.667 733.333 533.333 750 600 750C666.667 750 733.333 733.333 800 700V800H0V700Z" fill="#039BFF" fill-opacity="0.7"/>
  
  <!-- Sailboat -->
  <path d="M400 200L400 450" stroke="#023055" stroke-width="8"/>
  <path d="M400 200L300 450" stroke="#023055" stroke-width="8"/>
  <path d="M400 450L500 450" stroke="#023055" stroke-width="8"/>
  <path d="M280 450L520 450" stroke="#023055" stroke-width="8"/>
  <path d="M400 200L500 350" fill="#023055"/>
  <path d="M400 200L500 350" stroke="#023055" stroke-width="8"/>
</svg> 