<?xml version="1.0" standalone="no"?>
<!DOCTYPE svg PUBLIC "-//W3C//DTD SVG 20010904//EN"
 "http://www.w3.org/TR/2001/REC-SVG-20010904/DTD/svg10.dtd">
<svg version="1.0" xmlns="http://www.w3.org/2000/svg"
 width="1024.000000pt" height="1024.000000pt" viewBox="0 0 1024.000000 1024.000000"
 preserveAspectRatio="xMidYMid meet">

<g transform="translate(0.000000,1024.000000) scale(0.100000,-0.100000)"
fill="#000000" stroke="none">
<path d="M4960 8906 c-328 -70 -601 -326 -687 -646 -27 -98 -24 -338 5 -443
67 -244 251 -461 487 -577 l85 -41 0 -184 0 -185 -472 0 c-295 0 -487 -4 -510
-10 -56 -16 -119 -69 -147 -125 -34 -66 -36 -170 -4 -230 28 -53 78 -99 133
-124 43 -20 64 -21 502 -21 l458 0 -6 -277 c-3 -153 -14 -757 -25 -1343 -20
-1077 -26 -1225 -53 -1344 -51 -220 -210 -385 -424 -441 -217 -56 -514 36
-824 255 -108 77 -310 268 -416 394 -93 112 -215 296 -199 300 7 2 66 9 132
16 142 14 252 33 266 47 6 6 -30 39 -98 90 -268 202 -511 475 -689 777 -32 54
-64 101 -72 104 -20 7 -37 -18 -73 -112 -79 -205 -127 -470 -136 -756 -8 -248
17 -510 47 -510 6 0 58 50 116 110 59 61 110 110 114 110 3 0 24 -44 45 -97
135 -342 353 -679 608 -942 317 -325 663 -552 1240 -810 282 -126 353 -177
587 -419 l171 -176 46 55 c82 95 256 269 321 321 94 75 203 137 363 208 573
250 917 470 1238 791 269 269 498 615 646 974 21 50 38 91 40 93 1 2 53 -49
116 -113 67 -69 116 -112 122 -106 39 39 54 517 23 746 -39 286 -115 564 -173
627 -21 24 -33 13 -79 -70 -54 -97 -153 -245 -230 -342 -126 -159 -365 -384
-560 -526 -16 -12 -26 -25 -22 -29 9 -10 218 -44 313 -51 44 -3 86 -7 93 -10
19 -6 -130 -221 -246 -355 -228 -266 -518 -468 -807 -565 -193 -64 -374 -58
-519 19 -84 44 -182 145 -229 234 -79 152 -90 256 -107 1023 -6 261 -17 743
-25 1070 -8 327 -15 692 -17 810 l-3 215 475 5 c524 6 496 2 575 72 57 49 79
101 80 183 0 56 -5 80 -26 120 -28 56 -91 109 -147 125 -23 6 -216 10 -514 10
l-478 0 1 188 0 187 79 39 c407 199 614 646 488 1055 -85 277 -328 508 -620
591 -95 27 -286 35 -378 16z m285 -497 c159 -59 265 -222 253 -387 -14 -176
-145 -313 -329 -343 -53 -9 -76 -8 -129 5 -127 33 -212 103 -267 222 -37 79
-39 200 -5 286 39 97 135 186 240 224 58 21 172 17 237 -7z"/>
</g>
</svg>
