<svg xmlns="http://www.w3.org/2000/svg" viewBox="0 0 800 800" fill="currentColor">
  <path d="M400 100C355.82 100 320 135.82 320 180C320 217.73 345.97 249.1 380 258.6V690C350 680 320 665 290 650V580H330C335.52 580 340 575.52 340 570V530C340 524.48 335.52 520 330 520H230C224.48 520 220 524.48 220 530V570C220 575.52 224.48 580 230 580H270V630C250 620 230 610 210 600C160 570 130 560 100 560V620C137.14 620 168.28 631.27 202.2 646.8C251.08 669.37 306.05 695 400 695C493.95 695 548.92 669.37 597.8 646.8C631.72 631.27 662.86 620 700 620V560C670 560 640 570 590 600C570 610 550 620 530 630V580H570C575.52 580 580 575.52 580 570V530C580 524.48 575.52 520 570 520H470C464.48 520 460 524.48 460 530V570C460 575.52 464.48 580 470 580H510V650C480 665 450 680 420 690V258.6C454.03 249.1 480 217.73 480 180C480 135.82 444.18 100 400 100ZM400 220C377.94 220 360 202.06 360 180C360 157.94 377.94 140 400 140C422.06 140 440 157.94 440 180C440 202.06 422.06 220 400 220Z"/>
</svg> 