<svg xmlns="http://www.w3.org/2000/svg" viewBox="0 0 800 800" fill="currentColor">
  <path d="M400 80C225.9 80 80 225.9 80 400C80 574.1 225.9 720 400 720C574.1 720 720 574.1 720 400C720 225.9 574.1 80 400 80ZM400.1 190C455.3 190 500 234.7 500 289.9C500 345.1 455.3 389.8 400.1 389.8C344.9 389.8 300.2 345.1 300.2 289.9C300.2 234.7 344.9 190 400.1 190ZM179.8 510.2L274.2 416.8C287.5 442.8 311.1 462.4 339.9 470.1L339.9 589.7C269.7 582.6 211.5 553.5 179.8 510.2ZM460.1 589.7L460.1 470.1C488.9 462.4 512.5 442.8 525.8 416.8L620.2 510.2C588.5 553.6 530.3 582.6 460.1 589.7ZM654.4 461.6L560.4 368.6C567.4 347.1 567.4 324 560.4 302.5L654.4 209.4C681.3 264.1 693.2 329.2 679.6 396C671 437.8 651.6 476.5 620.2 510.2C620.2 510.2 622.2 491.3 654.4 461.6ZM239.6 368.6L145.6 461.6C118.7 406.9 106.8 341.8 120.4 275C129 233.2 148.4 194.5 179.8 160.8C179.8 160.8 177.8 179.7 145.6 209.4L239.6 302.4C232.6 324 232.6 347 239.6 368.6ZM339.9 210.3L339.9 329.9C311.1 337.6 287.5 357.2 274.2 383.2L179.8 289.8C211.5 246.5 269.7 217.4 339.9 210.3ZM525.8 383.2C512.5 357.2 488.9 337.6 460.1 329.9L460.1 210.3C530.3 217.4 588.5 246.4 620.2 289.8L525.8 383.2Z"/>
</svg> 