<?xml version="1.0" standalone="no"?>
<!DOCTYPE svg PUBLIC "-//W3C//DTD SVG 20010904//EN"
 "http://www.w3.org/TR/2001/REC-SVG-20010904/DTD/svg10.dtd">
<svg version="1.0" xmlns="http://www.w3.org/2000/svg"
 width="1024.000000pt" height="1024.000000pt" viewBox="0 0 1024.000000 1024.000000"
 preserveAspectRatio="xMidYMid meet">

<g transform="translate(0.000000,1024.000000) scale(0.100000,-0.100000)"
fill="#000000" stroke="none">
<path d="M2603 8293 c-86 -66 -297 -254 -320 -286 -26 -36 -30 -89 -9 -129 23
-45 573 -670 925 -1053 644 -700 901 -901 1685 -1325 l79 -42 -7 133 c-14 276
-35 418 -75 512 -29 68 -93 131 -286 285 -375 299 -539 463 -1156 1157 -643
724 -686 772 -704 779 -41 15 -84 5 -132 -31z"/>
<path d="M4225 7303 c-67 -9 -245 -67 -245 -81 0 -19 390 -482 436 -517 20
-15 86 -49 146 -76 135 -59 201 -108 278 -204 137 -173 210 -395 240 -725 9
-107 30 -564 30 -665 l0 -44 128 -65 c150 -77 288 -158 432 -255 l105 -70 3
47 c2 26 -4 173 -12 327 -9 154 -23 420 -31 590 -17 348 -27 451 -54 592 -58
297 -211 585 -420 794 -192 193 -392 297 -662 344 -77 14 -296 18 -374 8z"/>
<path d="M3187 6528 c-60 -140 -72 -216 -72 -438 0 -147 4 -215 17 -275 83
-381 288 -681 655 -956 140 -106 277 -184 643 -369 368 -186 501 -260 753
-418 214 -133 268 -156 367 -157 100 0 169 32 254 117 60 61 146 176 146 197
0 23 -240 220 -405 333 -150 103 -254 162 -575 328 -385 200 -522 277 -703
397 -321 213 -438 367 -517 680 -23 89 -36 124 -58 147 -16 17 -91 99 -168
181 -76 83 -173 187 -214 233 -40 45 -77 82 -81 82 -4 0 -22 -37 -42 -82z"/>
<path d="M5850 5873 c2 -162 21 -540 31 -603 11 -78 14 -84 90 -188 150 -204
210 -361 210 -549 0 -119 -18 -205 -66 -310 -97 -211 -293 -386 -492 -438 -75
-20 -203 -20 -287 -1 -37 9 -69 16 -72 16 -9 0 -3 -60 12 -111 27 -92 64 -151
140 -227 116 -116 255 -172 428 -172 269 0 532 171 731 475 135 206 211 426
237 686 46 463 -171 890 -627 1233 -105 80 -233 164 -302 200 l-33 17 0 -28z"/>
<path d="M6553 3546 c-89 -103 -188 -190 -307 -268 -50 -33 -92 -63 -94 -66
-1 -4 287 -296 640 -649 697 -695 675 -676 744 -640 16 9 100 84 187 169 152
148 158 154 157 193 0 22 -8 52 -17 65 -18 26 -159 179 -457 495 -189 200
-767 785 -776 785 -3 0 -38 -38 -77 -84z"/>
</g>
</svg>
