<svg xmlns="http://www.w3.org/2000/svg" viewBox="0 0 800 800" fill="currentColor">
  <path d="M675 360.5C630 341 570 360.5 550 390.5C535 413 535 430.5 520.5 427.5C511 425.5 508 418 500 413C492 408 475.5 408 467.5 413C463 416 455 427.5 446.5 418C440.5 411.5 438 400.5 438 390.5C438 345.5 400 286 345 272C291.5 258.5 233 272 200 300.5C167 329 127.5 390.5 125 418C122.5 445.5 125 481.5 127.5 496.5C130 511.5 138 526.5 138 526.5L177.5 496.5C177.5 496.5 180 482 185 466.5C190 451 202.5 436 210 428.5C217.5 421 230 413 243.5 408C257 403 277.5 400.5 297.5 400.5C317.5 400.5 345 408 360 415.5C375 423 400 445.5 420 453C440 460.5 462.5 462 485 457.5C507.5 453 532.5 441 550 427.5C567.5 414 587.5 390.5 600 378C612.5 365.5 647.5 343 675 360.5Z"/>
</svg> 