<svg xmlns="http://www.w3.org/2000/svg" viewBox="0 0 800 800" fill="currentColor">
  <path d="M755 400C730 350 705 325 680 325C642.5 325 605 400 555 400C505 400 467.5 325 430 325C392.5 325 355 400 305 400C255 400 217.5 325 180 325C142.5 325 105 400 55 400C42.5 400 30 394.5 20 387L20 450C30 457.5 42.5 462.5 55 462.5C105 462.5 142.5 387.5 180 387.5C217.5 387.5 255 462.5 305 462.5C355 462.5 392.5 387.5 430 387.5C467.5 387.5 505 462.5 555 462.5C605 462.5 642.5 387.5 680 387.5C705 387.5 730 412.5 755 462.5L755 400Z"/>
</svg> 