<?xml version="1.0" encoding="UTF-8"?>
<svg version="1.1" xmlns="http://www.w3.org/2000/svg" width="1024" height="1024">
<path d="M0 0 C23.90378325 -0.56668452 47.4834202 3.58638545 70.625 9.1640625 C71.75776367 9.42316406 72.89052734 9.68226563 74.05761719 9.94921875 C75.69585449 10.33400391 75.69585449 10.33400391 77.3671875 10.7265625 C78.35315918 10.95472656 79.33913086 11.18289062 80.35498047 11.41796875 C81.10408691 11.66417969 81.85319336 11.91039062 82.625 12.1640625 C82.955 12.8240625 83.285 13.4840625 83.625 14.1640625 C85.62066884 14.52241568 87.62163536 14.85158652 89.625 15.1640625 C91.47900409 15.83183653 93.31065032 16.56436703 95.1171875 17.3515625 C96.14416748 17.79830322 97.17114746 18.24504395 98.22924805 18.70532227 C99.30859619 19.18670654 100.38794434 19.66809082 101.5 20.1640625 C103.17412964 20.90837524 103.17412964 20.90837524 104.88208008 21.66772461 C119.18501374 28.11608183 132.15206272 35.65571862 144.625 45.1640625 C146.02298828 46.22367187 146.02298828 46.22367187 147.44921875 47.3046875 C177.11917168 70.69413944 196.27119594 102.68743405 201.625 140.1640625 C201.77839844 141.05222656 201.93179687 141.94039062 202.08984375 142.85546875 C205.03287248 163.98575366 198.90686845 185.92574817 188.625 204.1640625 C188.068125 205.16308594 187.51125 206.16210938 186.9375 207.19140625 C175.96429606 225.57679843 158.53066627 239.83335023 138 246.1015625 C122.26777679 249.72845228 107.16650721 248.19406267 92.625 241.1640625 C89.75653004 239.36142144 87.19306069 237.3660619 84.625 235.1640625 C83.81289063 234.55433594 83.00078125 233.94460938 82.1640625 233.31640625 C79.45130426 231.01682196 77.56424087 228.67899972 75.5 225.7890625 C74.83742188 224.87382812 74.17484375 223.95859375 73.4921875 223.015625 C68.57347241 215.50377978 68.57347241 215.50377978 68.75 210.9140625 C69.625 208.1640625 69.625 208.1640625 72.625 206.1640625 C75.11328125 206.37109375 75.11328125 206.37109375 77.9375 206.9765625 C79.41863281 207.27626953 79.41863281 207.27626953 80.9296875 207.58203125 C81.81914063 207.77410156 82.70859375 207.96617187 83.625 208.1640625 C98.0526473 211.23377469 111.06292156 208.59114707 123.625 201.1640625 C132.13995017 194.93541971 135.42645258 186.47421121 137.09765625 176.28125 C138.0696988 167.72280637 137.74367663 158.88864879 133.625 151.1640625 C133.3775 150.2771875 133.13 149.3903125 132.875 148.4765625 C130.31938695 141.7041879 125.98001338 135.99663555 120.625 131.1640625 C120.12484375 130.69484375 119.6246875 130.225625 119.109375 129.7421875 C110.8370023 122.22072779 110.8370023 122.22072779 100.625 119.1640625 C100.625 118.5040625 100.625 117.8440625 100.625 117.1640625 C99.19024053 116.69722102 97.75194004 116.24126606 96.3125 115.7890625 C95.51199219 115.53382813 94.71148438 115.27859375 93.88671875 115.015625 C69.39770105 108.62208505 44.93332169 111.3573619 22.625 123.1640625 C19.11262922 125.27318587 15.6607292 127.39833806 12.625 130.1640625 C12.625 130.8240625 12.625 131.4840625 12.625 132.1640625 C12.0266333 132.27564697 11.4282666 132.38723145 10.81176758 132.50219727 C7.1857038 133.59969184 4.8962697 136.451905 2.3125 139.1015625 C1.73072998 139.69565918 1.14895996 140.28975586 0.54956055 140.90185547 C-4.03730899 145.66778428 -8.00317613 150.45090475 -11.375 156.1640625 C-11.94081787 157.11780762 -11.94081787 157.11780762 -12.51806641 158.09082031 C-35.45740167 197.38215149 -36.05902818 242.25942827 -25.3203125 285.4921875 C-19.66519648 306.95365252 -8.98976127 325.77905964 4.625 343.1640625 C5.1096875 343.793125 5.594375 344.4221875 6.09375 345.0703125 C8.16564649 347.6734645 10.35975302 349.83388063 12.9375 351.9140625 C13.824375 352.6565625 14.71125 353.3990625 15.625 354.1640625 C15.625 354.8240625 15.625 355.4840625 15.625 356.1640625 C16.19347656 356.41929687 16.76195312 356.67453125 17.34765625 356.9375 C19.88702757 358.30518884 21.86146419 359.92579104 24.0625 361.7890625 C32.41804773 368.54200884 47.09950148 380.1640625 58.625 380.1640625 C58.625 380.8240625 58.625 381.4840625 58.625 382.1640625 C59.2334375 382.27363281 59.841875 382.38320313 60.46875 382.49609375 C61.78359375 382.73392578 61.78359375 382.73392578 63.125 382.9765625 C64.14207031 383.15574219 65.15914062 383.33492187 66.20703125 383.51953125 C68.5057298 383.95300012 70.79560956 384.43583482 73.07421875 384.96484375 C105.38258009 392.08821286 136.83488924 384.4042929 164.47900391 366.99658203 C172.14154663 361.97946584 179.02487971 356.16979294 185.88818359 350.12646484 C213.94903502 325.53988272 248.08790358 307.42816509 286.36328125 309.31640625 C318.8708583 311.85964818 346.45650489 327.18600151 367.5 351.7265625 C376.35375257 362.34666933 376.35375257 362.34666933 378.625 368.1640625 C378.265625 370.44140625 378.265625 370.44140625 377.625 372.1640625 C373.29301012 373.45110297 371.15352473 372.83978586 367.125 370.9140625 C350.12300528 363.43401826 333.94503393 363.69448334 316.5 369.7890625 C301.48040914 376.25789619 292.81274813 387.63346663 286.625 402.1640625 C281.77292462 416.39966692 284.06056918 433.05921016 290.375 446.4140625 C293.25889934 451.81870349 296.59889416 456.55640804 300.625 461.1640625 C301.12257813 461.75574219 301.62015625 462.34742188 302.1328125 462.95703125 C318.37056404 480.78591924 344.31609434 486.94216703 367.40673828 488.39355469 C373.92345395 488.85733326 379.25687105 489.73361437 384 494.6015625 C387.58279164 500.25134931 386.84414505 506.55180882 386.875 513.0390625 C386.9059375 514.65361328 386.9059375 514.65361328 386.9375 516.30078125 C386.96553589 521.98505744 386.9452114 526.30462689 383.625 531.1640625 C379.99638489 534.45249494 376.81371261 535.28856321 371.99645972 535.29286367 C371.03828898 535.29613586 370.08011824 535.29940805 369.09291202 535.30277941 C367.5074004 535.30055397 367.5074004 535.30055397 365.88985825 535.29828358 C364.76572539 535.30063581 363.64159253 535.30298804 362.48339504 535.30541155 C358.67737673 535.31212355 354.87139239 535.31164266 351.06536865 535.31123352 C348.32477457 535.31398163 345.58418323 535.3182181 342.84359097 535.322375 C336.07628914 535.33171346 329.30899385 535.33562514 322.54168638 535.33789397 C314.43927879 535.34085277 306.33687991 535.34954823 298.23447688 535.35830825 C278.64945048 535.37916602 259.06442256 535.38962421 239.47938764 535.39843785 C230.21807158 535.40264213 220.95675616 535.40786439 211.69544065 535.41312238 C180.00549235 535.43101299 148.31554387 535.44601027 116.62559128 535.45344257 C114.63559614 535.45391733 112.645601 535.45439322 110.65560587 535.45487024 C109.1752901 535.4552248 109.1752901 535.4552248 107.66506896 535.45558653 C102.66489623 535.45678775 97.66472351 535.45800319 92.66455078 535.45922852 C91.17609115 535.45958874 91.17609115 535.45958874 89.65756163 535.45995624 C57.47281833 535.46785204 25.28811185 535.49128944 -6.89661537 535.52378446 C-40.90823703 535.55806143 -74.91983714 535.5777917 -108.93147635 535.58108681 C-112.66319769 535.58150437 -116.394919 535.58198393 -120.12664032 535.58250999 C-121.50496573 535.58269478 -121.50496573 535.58269478 -122.9111361 535.5828833 C-137.71534101 535.5852179 -152.51950325 535.60089223 -167.32369294 535.62135184 C-182.19645573 535.64158057 -197.06916711 535.64710114 -211.94194111 535.63758121 C-220.78325386 535.63235485 -229.62439579 535.63829711 -238.46568405 535.66011588 C-244.36787865 535.67358364 -250.26995515 535.67258277 -256.17215083 535.65971392 C-259.53759254 535.65279018 -262.90243926 535.65443347 -266.26789549 535.66927401 C-269.89105898 535.68426676 -273.51335273 535.67480685 -277.13649368 535.65904713 C-278.18413676 535.66926933 -279.23177984 535.67949154 -280.31116968 535.69002351 C-286.51052649 535.63082456 -290.37291484 534.94152588 -295.375 531.1640625 C-298.30592497 524.21813737 -297.64622355 516.55595858 -297.60546875 509.125 C-297.60473763 507.73807799 -297.60479683 506.35115537 -297.60559082 504.9642334 C-297.60475279 501.25760571 -297.59065954 497.55114717 -297.57284164 493.84456635 C-297.5624507 491.52807207 -297.555304 489.21158993 -297.54922485 486.89508057 C-297.52095371 476.31782159 -297.46135027 465.74100358 -297.375 455.1640625 C-297.36533203 453.97635254 -297.35566406 452.78864258 -297.34570312 451.56494141 C-296.62336843 370.31432694 -289.78596171 289.45101959 -262.44726562 212.43334961 C-261.54048629 209.66862236 -260.86078596 207.02755364 -260.375 204.1640625 C-259.715 204.1640625 -259.055 204.1640625 -258.375 204.1640625 C-258.2207959 203.58358154 -258.0665918 203.00310059 -257.90771484 202.4050293 C-255.90386476 195.27500209 -253.12255804 188.68311539 -250 181.9765625 C-249.48195801 180.85685059 -248.96391602 179.73713867 -248.43017578 178.58349609 C-243.37480357 167.84253039 -237.62742308 157.5408441 -231.60498047 147.31689453 C-230.45063828 145.296452 -229.39473007 143.25503535 -228.375 141.1640625 C-227.375 139.1640625 -227.375 139.1640625 -225.66796875 137.046875 C-222.83695156 133.48760636 -220.26335157 129.78513537 -217.6875 126.0390625 C-217.18927734 125.32363281 -216.69105469 124.60820312 -216.17773438 123.87109375 C-215.70271484 123.18144531 -215.22769531 122.49179687 -214.73828125 121.78125 C-214.30813721 121.15847168 -213.87799316 120.53569336 -213.43481445 119.89404297 C-212.20660659 118.03542659 -212.20660659 118.03542659 -211.375 115.1640625 C-209.72181582 113.48402154 -208.05202906 111.82030194 -206.375 110.1640625 C-204.19478211 107.60464499 -202.10538212 104.97267654 -200 102.3515625 C-192.85488311 93.56499984 -185.23603841 85.31000717 -177.375 77.1640625 C-176.49972656 76.24753906 -175.62445313 75.33101563 -174.72265625 74.38671875 C-170.83594868 70.38755671 -170.83594868 70.38755671 -169.375 69.1640625 C-168.715 69.1640625 -168.055 69.1640625 -167.375 69.1640625 C-167.375 68.5040625 -167.375 67.8440625 -167.375 67.1640625 C-163.93166551 63.91040321 -160.11429971 61.06955081 -156.375 58.1640625 C-155.75931152 57.68549805 -155.14362305 57.20693359 -154.50927734 56.71386719 C-145.43435653 49.70215699 -136.19700933 43.08964835 -126.375 37.1640625 C-125.47974609 36.62168945 -125.47974609 36.62168945 -124.56640625 36.06835938 C-91.9517212 16.52023419 -55.19181111 4.74189061 -17.375 1.1640625 C-16.21355469 1.05320313 -15.05210937 0.94234375 -13.85546875 0.828125 C-9.24035939 0.44482748 -4.62495563 0.22482423 0 0 Z " fill="#000000" transform="translate(468.375,243.8359375)"/>
<path d="M0 0 C1.65 0 3.3 0 5 0 C5 0.33 5 0.66 5 1 C3.35 1 1.7 1 0 1 C0 0.67 0 0.34 0 0 Z " fill="#202020" transform="translate(470,780)"/>
<path d="M0 0 C1.65 0 3.3 0 5 0 C5 0.33 5 0.66 5 1 C3.35 1 1.7 1 0 1 C0 0.67 0 0.34 0 0 Z " fill="#1F1F1F" transform="translate(441,780)"/>
<path d="M0 0 C1.65 0 3.3 0 5 0 C5 0.33 5 0.66 5 1 C3.35 1 1.7 1 0 1 C0 0.67 0 0.34 0 0 Z " fill="#202020" transform="translate(310,780)"/>
<path d="M0 0 C4 1 4 1 4 1 Z " fill="#222221" transform="translate(735,780)"/>
<path d="M0 0 C4 1 4 1 4 1 Z " fill="#222121" transform="translate(679,780)"/>
<path d="M0 0 C4 1 4 1 4 1 Z " fill="#201F20" transform="translate(511,780)"/>
<path d="M0 0 C4 1 4 1 4 1 Z " fill="#1F201F" transform="translate(351,780)"/>
<path d="M0 0 C4 1 4 1 4 1 Z " fill="#1F1F1F" transform="translate(327,780)"/>
<path d="M0 0 C0.99 0.495 0.99 0.495 2 1 C1.67 1.66 1.34 2.32 1 3 C0.67 2.01 0.34 1.02 0 0 Z " fill="#1E1E1E" transform="translate(758,687)"/>
<path d="M0 0 C3 1 3 1 3 1 Z " fill="#222121" transform="translate(725,780)"/>
<path d="M0 0 C3 1 3 1 3 1 Z " fill="#212021" transform="translate(621,780)"/>
<path d="M0 0 C3 1 3 1 3 1 Z " fill="#20211F" transform="translate(605,780)"/>
<path d="M0 0 C3 1 3 1 3 1 Z " fill="#20201E" transform="translate(553,780)"/>
<path d="M0 0 C3 1 3 1 3 1 Z " fill="#202020" transform="translate(464,780)"/>
<path d="M0 0 C3 1 3 1 3 1 Z " fill="#1F2020" transform="translate(421,780)"/>
<path d="M0 0 C3 1 3 1 3 1 Z " fill="#1F1F20" transform="translate(336,780)"/>
<path d="" fill="#2D2C2D" transform="translate(0,0)"/>
<path d="M0 0 C0.66 0 1.32 0 2 0 C1.67 0.66 1.34 1.32 1 2 C0.67 1.34 0.34 0.68 0 0 Z " fill="#2A2929" transform="translate(793,561)"/>
<path d="M0 0 C3 1 3 1 3 1 Z " fill="#262627" transform="translate(789,560)"/>
<path d="" fill="#232121" transform="translate(0,0)"/>
<path d="M0 0 C0.33 0.66 0.66 1.32 1 2 C0.34 1.67 -0.32 1.34 -1 1 C-0.67 0.67 -0.34 0.34 0 0 Z " fill="#222221" transform="translate(593,380)"/>
<path d="M0 0 C2 1 2 1 2 1 Z " fill="#2D2D2D" transform="translate(817,780)"/>
<path d="M0 0 C2 1 2 1 2 1 Z " fill="#272727" transform="translate(793,780)"/>
<path d="M0 0 C2 1 2 1 2 1 Z " fill="#222321" transform="translate(761,780)"/>
<path d="M0 0 C2 1 2 1 2 1 Z " fill="#242324" transform="translate(753,780)"/>
<path d="M0 0 C2 1 2 1 2 1 Z " fill="#212121" transform="translate(713,780)"/>
<path d="M0 0 C2 1 2 1 2 1 Z " fill="#222122" transform="translate(694,780)"/>
<path d="M0 0 C2 1 2 1 2 1 Z " fill="#222121" transform="translate(686,780)"/>
<path d="M0 0 C2 1 2 1 2 1 Z " fill="#222121" transform="translate(670,780)"/>
<path d="M0 0 C2 1 2 1 2 1 Z " fill="#20211F" transform="translate(657,780)"/>
<path d="M0 0 C2 1 2 1 2 1 Z " fill="#222021" transform="translate(649,780)"/>
<path d="M0 0 C2 1 2 1 2 1 Z " fill="#222122" transform="translate(644,780)"/>
<path d="M0 0 C2 1 2 1 2 1 Z " fill="#212121" transform="translate(625,780)"/>
<path d="M0 0 C2 1 2 1 2 1 Z " fill="#21201F" transform="translate(601,780)"/>
<path d="M0 0 C2 1 2 1 2 1 Z " fill="#202020" transform="translate(580,780)"/>
<path d="M0 0 C2 1 2 1 2 1 Z " fill="#1E1E1F" transform="translate(569,780)"/>
<path d="M0 0 C2 1 2 1 2 1 Z " fill="#1F2020" transform="translate(542,780)"/>
<path d="M0 0 C2 1 2 1 2 1 Z " fill="#1F1F1F" transform="translate(532,780)"/>
<path d="M0 0 C2 1 2 1 2 1 Z " fill="#202020" transform="translate(521,780)"/>
<path d="M0 0 C2 1 2 1 2 1 Z " fill="#202120" transform="translate(505,780)"/>
<path d="M0 0 C2 1 2 1 2 1 Z " fill="#1F1F1E" transform="translate(489,780)"/>
<path d="M0 0 C2 1 2 1 2 1 Z " fill="#212022" transform="translate(457,780)"/>
<path d="M0 0 C2 1 2 1 2 1 Z " fill="#20201F" transform="translate(454,780)"/>
<path d="M0 0 C2 1 2 1 2 1 Z " fill="#212120" transform="translate(415,780)"/>
<path d="M0 0 C2 1 2 1 2 1 Z " fill="#211F1F" transform="translate(409,780)"/>
<path d="M0 0 C2 1 2 1 2 1 Z " fill="#211F1F" transform="translate(406,780)"/>
<path d="M0 0 C2 1 2 1 2 1 Z " fill="#20201F" transform="translate(401,780)"/>
<path d="M0 0 C2 1 2 1 2 1 Z " fill="#1E1F1F" transform="translate(390,780)"/>
<path d="M0 0 C2 1 2 1 2 1 Z " fill="#1F1E20" transform="translate(340,780)"/>
<path d="M0 0 C2 1 2 1 2 1 Z " fill="#211F1F" transform="translate(318,780)"/>
<path d="M0 0 C2 1 2 1 2 1 Z " fill="#212120" transform="translate(305,780)"/>
<path d="M0 0 C2 1 2 1 2 1 Z " fill="#222123" transform="translate(262,780)"/>
<path d="" fill="#322F2E" transform="translate(0,0)"/>
<path d="" fill="#302F30" transform="translate(0,0)"/>
<path d="M0 0 C2 1 2 1 2 1 Z " fill="#2F2E2F" transform="translate(169,768)"/>
<path d="M0 0 C2 1 2 1 2 1 Z " fill="#222120" transform="translate(797,723)"/>
<path d="M0 0 C2 1 2 1 2 1 Z " fill="#222223" transform="translate(594,626)"/>
<path d="" fill="#282729" transform="translate(0,0)"/>
<path d="" fill="#222221" transform="translate(0,0)"/>
<path d="M0 0 C2 1 2 1 2 1 Z " fill="#20201F" transform="translate(654,592)"/>
<path d="" fill="#272628" transform="translate(0,0)"/>
<path d="" fill="#2A2A27" transform="translate(0,0)"/>
<path d="" fill="#222222" transform="translate(0,0)"/>
<path d="" fill="#201E20" transform="translate(0,0)"/>
<path d="M0 0 C2 1 2 1 2 1 Z " fill="#262728" transform="translate(769,554)"/>
<path d="" fill="#292928" transform="translate(0,0)"/>
<path d="M0 0 C2 1 2 1 2 1 Z " fill="#2F2F2F" transform="translate(549,450)"/>
<path d="M0 0 C2 1 2 1 2 1 Z " fill="#272626" transform="translate(581,449)"/>
<path d="" fill="#232321" transform="translate(0,0)"/>
<path d="M0 0 C2 1 2 1 2 1 Z " fill="#232223" transform="translate(669,376)"/>
<path d="M0 0 C2 1 2 1 2 1 Z " fill="#232322" transform="translate(577,266)"/>
<path d="M0 0 C2 1 2 1 2 1 Z " fill="#212020" transform="translate(573,264)"/>
<path d="M0 0 C2 1 2 1 2 1 Z " fill="#262323" transform="translate(392,256)"/>
<path d="" fill="#3B3B3A" transform="translate(0,0)"/>
<path d="" fill="#3D3D3C" transform="translate(0,0)"/>
<path d="" fill="#30302E" transform="translate(0,0)"/>
<path d="" fill="#222322" transform="translate(0,0)"/>
<path d="" fill="#212121" transform="translate(0,0)"/>
<path d="" fill="#212223" transform="translate(0,0)"/>
<path d="" fill="#232121" transform="translate(0,0)"/>
<path d="" fill="#212221" transform="translate(0,0)"/>
<path d="" fill="#201F20" transform="translate(0,0)"/>
<path d="" fill="#242424" transform="translate(0,0)"/>
<path d="" fill="#2D2D2E" transform="translate(0,0)"/>
<path d="" fill="#272828" transform="translate(0,0)"/>
<path d="" fill="#262525" transform="translate(0,0)"/>
<path d="" fill="#262525" transform="translate(0,0)"/>
<path d="" fill="#232523" transform="translate(0,0)"/>
<path d="" fill="#232424" transform="translate(0,0)"/>
<path d="" fill="#242424" transform="translate(0,0)"/>
<path d="" fill="#232323" transform="translate(0,0)"/>
<path d="" fill="#222320" transform="translate(0,0)"/>
<path d="" fill="#21211F" transform="translate(0,0)"/>
<path d="" fill="#212121" transform="translate(0,0)"/>
<path d="" fill="#232122" transform="translate(0,0)"/>
<path d="" fill="#222221" transform="translate(0,0)"/>
<path d="" fill="#222022" transform="translate(0,0)"/>
<path d="" fill="#242222" transform="translate(0,0)"/>
<path d="" fill="#222121" transform="translate(0,0)"/>
<path d="" fill="#222022" transform="translate(0,0)"/>
<path d="" fill="#212020" transform="translate(0,0)"/>
<path d="" fill="#222222" transform="translate(0,0)"/>
<path d="" fill="#222321" transform="translate(0,0)"/>
<path d="" fill="#222120" transform="translate(0,0)"/>
<path d="" fill="#212123" transform="translate(0,0)"/>
<path d="" fill="#21221F" transform="translate(0,0)"/>
<path d="" fill="#212121" transform="translate(0,0)"/>
<path d="" fill="#212220" transform="translate(0,0)"/>
<path d="" fill="#212021" transform="translate(0,0)"/>
<path d="" fill="#20201F" transform="translate(0,0)"/>
<path d="" fill="#212221" transform="translate(0,0)"/>
<path d="" fill="#212121" transform="translate(0,0)"/>
<path d="" fill="#20201E" transform="translate(0,0)"/>
<path d="" fill="#201F1E" transform="translate(0,0)"/>
<path d="" fill="#201F20" transform="translate(0,0)"/>
<path d="" fill="#232222" transform="translate(0,0)"/>
<path d="" fill="#201E21" transform="translate(0,0)"/>
<path d="" fill="#1E201E" transform="translate(0,0)"/>
<path d="" fill="#201E21" transform="translate(0,0)"/>
<path d="" fill="#21201F" transform="translate(0,0)"/>
<path d="" fill="#22221F" transform="translate(0,0)"/>
<path d="" fill="#1F1D1F" transform="translate(0,0)"/>
<path d="" fill="#1F211F" transform="translate(0,0)"/>
<path d="" fill="#221E21" transform="translate(0,0)"/>
<path d="" fill="#1F1E1F" transform="translate(0,0)"/>
<path d="" fill="#1E1E1F" transform="translate(0,0)"/>
<path d="" fill="#1F201D" transform="translate(0,0)"/>
<path d="" fill="#1F201D" transform="translate(0,0)"/>
<path d="" fill="#1F1D1E" transform="translate(0,0)"/>
<path d="" fill="#212020" transform="translate(0,0)"/>
<path d="" fill="#1F221F" transform="translate(0,0)"/>
<path d="" fill="#1F1F1F" transform="translate(0,0)"/>
<path d="" fill="#1F211E" transform="translate(0,0)"/>
<path d="" fill="#1F1F20" transform="translate(0,0)"/>
<path d="" fill="#201F1F" transform="translate(0,0)"/>
<path d="" fill="#211F1F" transform="translate(0,0)"/>
<path d="" fill="#1E201E" transform="translate(0,0)"/>
<path d="" fill="#1E2020" transform="translate(0,0)"/>
<path d="" fill="#1E1F1F" transform="translate(0,0)"/>
<path d="" fill="#1E1F1F" transform="translate(0,0)"/>
<path d="" fill="#1F2120" transform="translate(0,0)"/>
<path d="" fill="#212020" transform="translate(0,0)"/>
<path d="" fill="#1F1F1F" transform="translate(0,0)"/>
<path d="" fill="#201D20" transform="translate(0,0)"/>
<path d="" fill="#1F1F1F" transform="translate(0,0)"/>
<path d="" fill="#1E2020" transform="translate(0,0)"/>
<path d="" fill="#21201F" transform="translate(0,0)"/>
<path d="" fill="#1F1E20" transform="translate(0,0)"/>
<path d="" fill="#222221" transform="translate(0,0)"/>
<path d="" fill="#20201F" transform="translate(0,0)"/>
<path d="" fill="#1F2121" transform="translate(0,0)"/>
<path d="" fill="#1F2120" transform="translate(0,0)"/>
<path d="" fill="#20211F" transform="translate(0,0)"/>
<path d="" fill="#201D21" transform="translate(0,0)"/>
<path d="" fill="#201E21" transform="translate(0,0)"/>
<path d="" fill="#1F1F1F" transform="translate(0,0)"/>
<path d="" fill="#201F1F" transform="translate(0,0)"/>
<path d="" fill="#222021" transform="translate(0,0)"/>
<path d="" fill="#222122" transform="translate(0,0)"/>
<path d="" fill="#242224" transform="translate(0,0)"/>
<path d="" fill="#232123" transform="translate(0,0)"/>
<path d="" fill="#252426" transform="translate(0,0)"/>
<path d="" fill="#282826" transform="translate(0,0)"/>
<path d="" fill="#2B2B2C" transform="translate(0,0)"/>
<path d="" fill="#2A2A2B" transform="translate(0,0)"/>
<path d="" fill="#313032" transform="translate(0,0)"/>
<path d="" fill="#353837" transform="translate(0,0)"/>
<path d="" fill="#363434" transform="translate(0,0)"/>
<path d="" fill="#2D2B2D" transform="translate(0,0)"/>
<path d="" fill="#2F3130" transform="translate(0,0)"/>
<path d="" fill="#2B2B2A" transform="translate(0,0)"/>
<path d="" fill="#2B292A" transform="translate(0,0)"/>
<path d="" fill="#292427" transform="translate(0,0)"/>
<path d="" fill="#232622" transform="translate(0,0)"/>
<path d="" fill="#2D2C2C" transform="translate(0,0)"/>
<path d="" fill="#232121" transform="translate(0,0)"/>
<path d="" fill="#212120" transform="translate(0,0)"/>
<path d="" fill="#282827" transform="translate(0,0)"/>
<path d="" fill="#2A2829" transform="translate(0,0)"/>
<path d="" fill="#222323" transform="translate(0,0)"/>
<path d="" fill="#292B29" transform="translate(0,0)"/>
<path d="" fill="#242525" transform="translate(0,0)"/>
<path d="" fill="#454445" transform="translate(0,0)"/>
<path d="" fill="#252524" transform="translate(0,0)"/>
<path d="" fill="#232321" transform="translate(0,0)"/>
<path d="" fill="#242322" transform="translate(0,0)"/>
<path d="" fill="#232321" transform="translate(0,0)"/>
<path d="" fill="#202120" transform="translate(0,0)"/>
<path d="" fill="#474647" transform="translate(0,0)"/>
<path d="" fill="#282827" transform="translate(0,0)"/>
<path d="" fill="#454545" transform="translate(0,0)"/>
<path d="" fill="#20201F" transform="translate(0,0)"/>
<path d="" fill="#20211E" transform="translate(0,0)"/>
<path d="" fill="#211F1F" transform="translate(0,0)"/>
<path d="" fill="#2B2B2A" transform="translate(0,0)"/>
<path d="" fill="#373836" transform="translate(0,0)"/>
<path d="" fill="#21211E" transform="translate(0,0)"/>
<path d="" fill="#1E1C1D" transform="translate(0,0)"/>
<path d="" fill="#272728" transform="translate(0,0)"/>
<path d="" fill="#343634" transform="translate(0,0)"/>
<path d="" fill="#1E1E1E" transform="translate(0,0)"/>
<path d="" fill="#1C1D1C" transform="translate(0,0)"/>
<path d="" fill="#1F1E1E" transform="translate(0,0)"/>
<path d="" fill="#202023" transform="translate(0,0)"/>
<path d="" fill="#1C2122" transform="translate(0,0)"/>
<path d="" fill="#202020" transform="translate(0,0)"/>
<path d="" fill="#1F201C" transform="translate(0,0)"/>
<path d="" fill="#221F1E" transform="translate(0,0)"/>
<path d="" fill="#1E1C1B" transform="translate(0,0)"/>
<path d="" fill="#22221F" transform="translate(0,0)"/>
<path d="" fill="#252625" transform="translate(0,0)"/>
<path d="" fill="#22201E" transform="translate(0,0)"/>
<path d="" fill="#212020" transform="translate(0,0)"/>
<path d="" fill="#282828" transform="translate(0,0)"/>
<path d="" fill="#2A2A2A" transform="translate(0,0)"/>
<path d="" fill="#2E2C28" transform="translate(0,0)"/>
<path d="" fill="#21211E" transform="translate(0,0)"/>
<path d="" fill="#2D2A2B" transform="translate(0,0)"/>
<path d="" fill="#21211F" transform="translate(0,0)"/>
<path d="" fill="#292827" transform="translate(0,0)"/>
<path d="" fill="#232422" transform="translate(0,0)"/>
<path d="" fill="#23221F" transform="translate(0,0)"/>
<path d="" fill="#282829" transform="translate(0,0)"/>
<path d="" fill="#2A2A2A" transform="translate(0,0)"/>
<path d="" fill="#292927" transform="translate(0,0)"/>
<path d="" fill="#232121" transform="translate(0,0)"/>
<path d="" fill="#292B29" transform="translate(0,0)"/>
<path d="" fill="#21201F" transform="translate(0,0)"/>
<path d="" fill="#242122" transform="translate(0,0)"/>
<path d="" fill="#363635" transform="translate(0,0)"/>
<path d="" fill="#292928" transform="translate(0,0)"/>
<path d="" fill="#2B2929" transform="translate(0,0)"/>
<path d="" fill="#282627" transform="translate(0,0)"/>
<path d="" fill="#29292A" transform="translate(0,0)"/>
<path d="" fill="#262525" transform="translate(0,0)"/>
<path d="" fill="#282727" transform="translate(0,0)"/>
<path d="" fill="#262524" transform="translate(0,0)"/>
<path d="" fill="#282826" transform="translate(0,0)"/>
<path d="" fill="#262626" transform="translate(0,0)"/>
<path d="" fill="#262828" transform="translate(0,0)"/>
<path d="" fill="#272725" transform="translate(0,0)"/>
<path d="" fill="#262526" transform="translate(0,0)"/>
<path d="" fill="#3B3A3B" transform="translate(0,0)"/>
<path d="" fill="#333333" transform="translate(0,0)"/>
<path d="" fill="#272527" transform="translate(0,0)"/>
<path d="" fill="#323031" transform="translate(0,0)"/>
<path d="" fill="#303130" transform="translate(0,0)"/>
<path d="" fill="#292927" transform="translate(0,0)"/>
<path d="" fill="#262525" transform="translate(0,0)"/>
<path d="" fill="#323131" transform="translate(0,0)"/>
<path d="" fill="#292827" transform="translate(0,0)"/>
<path d="" fill="#282829" transform="translate(0,0)"/>
<path d="" fill="#292827" transform="translate(0,0)"/>
<path d="" fill="#262625" transform="translate(0,0)"/>
<path d="" fill="#282422" transform="translate(0,0)"/>
<path d="" fill="#414041" transform="translate(0,0)"/>
<path d="" fill="#343232" transform="translate(0,0)"/>
<path d="" fill="#323132" transform="translate(0,0)"/>
<path d="" fill="#2A2A2B" transform="translate(0,0)"/>
<path d="" fill="#2A2626" transform="translate(0,0)"/>
<path d="" fill="#252423" transform="translate(0,0)"/>
<path d="" fill="#282626" transform="translate(0,0)"/>
<path d="" fill="#343332" transform="translate(0,0)"/>
<path d="" fill="#242323" transform="translate(0,0)"/>
<path d="" fill="#242626" transform="translate(0,0)"/>
<path d="" fill="#252525" transform="translate(0,0)"/>
<path d="" fill="#2F2E2C" transform="translate(0,0)"/>
<path d="" fill="#272828" transform="translate(0,0)"/>
<path d="" fill="#282928" transform="translate(0,0)"/>
<path d="" fill="#292929" transform="translate(0,0)"/>
<path d="" fill="#282627" transform="translate(0,0)"/>
<path d="" fill="#424142" transform="translate(0,0)"/>
<path d="" fill="#272725" transform="translate(0,0)"/>
<path d="" fill="#262525" transform="translate(0,0)"/>
<path d="" fill="#272626" transform="translate(0,0)"/>
<path d="" fill="#252322" transform="translate(0,0)"/>
<path d="" fill="#262624" transform="translate(0,0)"/>
<path d="" fill="#262725" transform="translate(0,0)"/>
<path d="" fill="#272625" transform="translate(0,0)"/>
<path d="" fill="#242524" transform="translate(0,0)"/>
<path d="" fill="#222222" transform="translate(0,0)"/>
<path d="" fill="#222223" transform="translate(0,0)"/>
<path d="" fill="#262426" transform="translate(0,0)"/>
<path d="" fill="#222222" transform="translate(0,0)"/>
<path d="" fill="#231F1F" transform="translate(0,0)"/>
<path d="" fill="#222121" transform="translate(0,0)"/>
<path d="" fill="#3D3D3E" transform="translate(0,0)"/>
<path d="" fill="#212120" transform="translate(0,0)"/>
<path d="" fill="#212323" transform="translate(0,0)"/>
<path d="" fill="#22201F" transform="translate(0,0)"/>
<path d="" fill="#202422" transform="translate(0,0)"/>
<path d="" fill="#222220" transform="translate(0,0)"/>
<path d="" fill="#232222" transform="translate(0,0)"/>
<path d="" fill="#262424" transform="translate(0,0)"/>
<path d="" fill="#242123" transform="translate(0,0)"/>
<path d="" fill="#252523" transform="translate(0,0)"/>
<path d="" fill="#242423" transform="translate(0,0)"/>
<path d="" fill="#252323" transform="translate(0,0)"/>
<path d="" fill="#222220" transform="translate(0,0)"/>
<path d="" fill="#201E1F" transform="translate(0,0)"/>
<path d="" fill="#262222" transform="translate(0,0)"/>
<path d="" fill="#3C3D3D" transform="translate(0,0)"/>
<path d="" fill="#3E3E3F" transform="translate(0,0)"/>
<path d="" fill="#232323" transform="translate(0,0)"/>
<path d="" fill="#1F1D1D" transform="translate(0,0)"/>
<path d="" fill="#252121" transform="translate(0,0)"/>
<path d="" fill="#212120" transform="translate(0,0)"/>
<path d="" fill="#211F22" transform="translate(0,0)"/>
<path d="" fill="#23221F" transform="translate(0,0)"/>
<path d="" fill="#20211E" transform="translate(0,0)"/>
<path d="" fill="#211F20" transform="translate(0,0)"/>
<path d="" fill="#1F1F21" transform="translate(0,0)"/>
<path d="" fill="#1E201A" transform="translate(0,0)"/>
<path d="" fill="#222220" transform="translate(0,0)"/>
<path d="" fill="#232120" transform="translate(0,0)"/>
<path d="" fill="#252222" transform="translate(0,0)"/>
<path d="" fill="#1E1F1F" transform="translate(0,0)"/>
<path d="" fill="#272525" transform="translate(0,0)"/>
<path d="" fill="#242323" transform="translate(0,0)"/>
<path d="" fill="#222323" transform="translate(0,0)"/>
<path d="" fill="#242322" transform="translate(0,0)"/>
<path d="" fill="#252524" transform="translate(0,0)"/>
<path d="" fill="#282623" transform="translate(0,0)"/>
<path d="" fill="#262525" transform="translate(0,0)"/>
<path d="" fill="#262525" transform="translate(0,0)"/>
<path d="" fill="#292526" transform="translate(0,0)"/>
<path d="" fill="#262323" transform="translate(0,0)"/>
<path d="" fill="#212423" transform="translate(0,0)"/>
<path d="" fill="#262526" transform="translate(0,0)"/>
<path d="" fill="#272625" transform="translate(0,0)"/>
<path d="" fill="#242523" transform="translate(0,0)"/>
<path d="" fill="#262627" transform="translate(0,0)"/>
<path d="" fill="#2A2526" transform="translate(0,0)"/>
<path d="" fill="#454344" transform="translate(0,0)"/>
<path d="" fill="#474748" transform="translate(0,0)"/>
<path d="" fill="#424242" transform="translate(0,0)"/>
<path d="" fill="#424342" transform="translate(0,0)"/>
<path d="" fill="#464747" transform="translate(0,0)"/>
<path d="" fill="#484848" transform="translate(0,0)"/>
</svg>
